<?xml version="1.0" encoding="utf-8"?>
<!-- Generator: Adobe Illustrator 19.2.1, SVG Export Plug-In . SVG Version: 6.00 Build 0)  -->
<svg version="1.1" id="layer" xmlns="http://www.w3.org/2000/svg" xmlns:xlink="http://www.w3.org/1999/xlink" x="0px" y="0px"
	 viewBox="0 0 652 652" style="enable-background:new 0 0 652 652;" xml:space="preserve">
<style type="text/css">
	.st0{fill:#231815;}
	.st1{fill:#CF0A2C;}
	.st2{fill:#FFFFFF;}
</style>
<g>
	<path class="st0" d="M284.6,372.4c4.3,0,6.4,3.2,6.4,7.1c0,3.9-2.2,7.1-6.4,7.1c-4.2,0-6.3-3.2-6.3-7.1
		C278.3,375.6,280.5,372.4,284.6,372.4 M289.7,379.5c0-3.8-1.9-6-5.1-6c-3.5,0-5,2.9-5,6c0,3.2,1.5,6,5.1,6
		C288.2,385.5,289.7,382.7,289.7,379.5"/>
	<polygon class="st0" points="299.1,386.3 299.1,372.8 307.9,372.8 307.9,373.8 300.4,373.8 300.4,378.7 307.2,378.7 307.2,379.8 
		300.4,379.8 300.4,386.3 	"/>
	<polygon class="st0" points="315.3,386.3 315.3,372.8 324,372.8 324,373.8 316.6,373.8 316.6,378.7 323.4,378.7 323.4,379.8 
		316.6,379.8 316.6,386.3 	"/>
	<rect x="332.1" y="372.8" class="st0" width="1.3" height="13.5"/>
	<path class="st0" d="M352.2,376.7c-0.5-2.3-2-3.2-4.3-3.2c-3.3,0-4.7,2.8-4.7,6c0,3,1.1,6.1,4.8,6.1c2.3,0,3.8-1.6,4.3-3.7h1.3
		c-0.6,2.6-2.3,4.8-5.9,4.8c-4.2,0-5.9-3.3-5.9-7.1c0-5.2,2.7-7.1,6.3-7.1c2.8,0,4.8,1.5,5.3,4.3H352.2z"/>
	<rect x="362.3" y="372.8" class="st0" width="1.3" height="13.5"/>
	<path class="st0" d="M371.5,386.3l5.3-13.5h1.5l5.2,13.5h-1.3l-1.6-4.2h-6.2l-1.6,4.2H371.5z M374.9,380.9h5.3l-2.7-7.1
		L374.9,380.9z"/>
	<polygon class="st0" points="391.1,386.3 391.1,372.8 392.4,372.8 392.4,385.2 399.7,385.2 399.7,386.3 	"/>
	<polygon class="st0" points="418.1,386.3 418.1,372.8 420.1,372.8 424.6,384.7 424.6,384.7 429,372.8 430.9,372.8 430.9,386.3 
		429.6,386.3 429.6,374.2 429.6,374.2 425.1,386.3 423.9,386.3 419.5,374.2 419.4,374.2 419.4,386.3 	"/>
	<path class="st0" d="M438.4,386.3l5.4-13.5h1.5l5.2,13.5h-1.3l-1.6-4.2h-6.2l-1.6,4.2H438.4z M441.7,380.9h5.3l-2.7-7.1
		L441.7,380.9z"/>
	<path class="st0" d="M467.6,376.7c-0.5-2.3-2-3.2-4.3-3.2c-3.3,0-4.7,2.8-4.7,6c0,3,1.1,6.1,4.8,6.1c2.3,0,3.8-1.6,4.3-3.7h1.3
		c-0.6,2.6-2.3,4.8-5.9,4.8c-4.2,0-5.9-3.3-5.9-7.1c0-5.2,2.7-7.1,6.3-7.1c2.8,0,4.8,1.5,5.3,4.3H467.6z"/>
	<polygon class="st0" points="477.2,386.3 477.2,372.8 478.5,372.8 478.5,378.6 486.5,378.6 486.5,372.8 487.8,372.8 487.8,386.3 
		486.5,386.3 486.5,379.6 478.5,379.6 478.5,386.3 	"/>
	<rect x="497" y="372.8" class="st0" width="1.3" height="13.5"/>
	<polygon class="st0" points="508.8,374.5 508.7,374.5 508.7,386.3 507.4,386.3 507.4,372.8 508.9,372.8 516.8,384.6 516.8,384.6 
		516.8,372.8 518.1,372.8 518.1,386.3 516.6,386.3 	"/>
	<polygon class="st0" points="526.8,386.3 526.8,372.8 535.9,372.8 535.9,373.8 528.1,373.8 528.1,378.7 535.1,378.7 535.1,379.8 
		528.1,379.8 528.1,385.2 536.1,385.2 536.1,386.3 	"/>
	<polygon class="st0" points="553.7,372.8 563.6,372.8 563.6,373.8 559.3,373.8 559.3,386.3 558.1,386.3 558.1,373.8 553.7,373.8 	
		"/>
	<path class="st0" d="M576.9,372.4c4.3,0,6.4,3.2,6.4,7.1c0,3.9-2.2,7.1-6.4,7.1c-4.2,0-6.3-3.2-6.3-7.1
		C570.6,375.6,572.8,372.4,576.9,372.4 M582,379.5c0-3.8-1.9-6-5.1-6c-3.5,0-5,2.9-5,6c0,3.2,1.5,6,5.1,6
		C580.5,385.5,582,382.7,582,379.5"/>
	<path class="st0" d="M597.3,372.4c4.3,0,6.4,3.2,6.4,7.1c0,3.9-2.2,7.1-6.4,7.1c-4.2,0-6.3-3.2-6.3-7.1
		C591,375.6,593.2,372.4,597.3,372.4 M602.4,379.5c0-3.8-1.9-6-5.1-6c-3.5,0-5,2.9-5,6c0,3.2,1.5,6,5.1,6
		C600.9,385.5,602.4,382.7,602.4,379.5"/>
	<polygon class="st0" points="611.9,386.3 611.9,372.8 613.2,372.8 613.2,385.2 620.5,385.2 620.5,386.3 	"/>
	<polygon class="st1" points="426.4,315.1 426.4,289.1 463.1,289.1 463.1,315.1 472.2,315.1 472.2,259 463.1,259 463.1,281.1 
		426.4,281.1 426.4,259 417.3,259 417.3,315.1 	"/>
	<path class="st1" d="M511.9,310.5c0.9,4.4,4,5.1,7.2,5.1c2,0,4.4-0.2,6.1-0.5l0.4-0.1l0-6.3l-0.5,0.1c-0.7,0.1-1.8,0.3-2.6,0.3
		c-2.2,0-3.1-0.9-3.1-3.1l0-21.8c0-10.4-12-12-19.1-12c-13,0-19.6,4.6-20.6,14.5l0,0.5h8.2l0-0.4c0.2-5.1,4.1-7.6,12.1-7.6
		c7.9,0,11.3,1.9,11.3,6.2c0,3.2-2.1,4-6.7,4.4l-8.8,0.9c-12.8,1.4-17.8,5-17.8,13c0,3.8,1.7,12.7,16.9,12.7
		C500.6,316.5,508.1,314.6,511.9,310.5 M506.7,306.5c-2.9,2-6.9,3.1-11.1,3.1c-5.4,0-9-2.4-9-6c0-3.7,2.5-5.4,8.8-6.2l8.7-1.1
		c3.5-0.4,5.7-0.9,7.1-1.9l0,4.2C511.2,301.7,509.6,304.5,506.7,306.5"/>
	<path class="st1" d="M575.8,308.9c-0.7,0.1-1.8,0.3-2.6,0.3c-2.2,0-3-0.9-3.1-3.1l0-21.8c0-10.4-12-12-19.1-12
		c-13,0-19.6,4.6-20.6,14.5l0,0.5h8.2l0-0.4c0.2-5.1,4.1-7.6,12.1-7.6c7.9,0,11.3,1.9,11.3,6.2c0,3.2-2.1,4-6.7,4.4l-8.8,0.9
		c-12.8,1.4-17.8,5-17.8,13c0,3.8,1.7,12.7,16.9,12.7c5.7,0,13.3-1.9,17-6c0.9,4.4,4,5.1,7.2,5.1c2,0,4.4-0.2,6.1-0.5l0.4-0.1l0-6.3
		L575.8,308.9z M562,298.7c0,3-1.6,5.8-4.6,7.9c-2.9,2-6.9,3.1-11.1,3.1c-5.4,0-9-2.4-9-6c0-3.7,2.5-5.4,8.8-6.2l8.7-1.1
		c3.5-0.4,5.7-0.9,7.1-1.9L562,298.7z"/>
	<path class="st1" d="M578.4,301.5l0,0.5c0.7,9.7,7.8,14.6,21.2,14.6c6.4,0,11.5-1.2,15.1-3.5c3.8-2.5,5.7-6.1,5.7-10.8
		c0-6.3-4.6-9.8-14.5-11.2l-11-1.5c-5.3-0.8-6.4-2.2-6.4-4.6c0-2,1.1-3.5,3.2-4.5c1.8-0.8,4.2-1.3,7-1.3c8.3,0,11.5,3.7,11.7,7.2
		l0,0.4h8.6l0-0.5c-0.8-9-8-14-20.2-14c-5.7,0-10.5,1.2-13.8,3.5c-3.4,2.4-5.2,5.8-5.2,10c0,6.7,5.7,10.4,11.4,11.2l12.8,1.7
		c6.1,0.8,7.3,2.5,7.3,5c0,1.1-0.4,2.6-2.3,3.9c-2,1.3-5.3,2-9.7,2c-9.1,0-12.3-4-12.3-7.7v-0.4H578.4z"/>
	<polygon class="st0" points="444.7,325.3 417.3,325.3 417.3,360.3 423.2,360.3 423.2,345 443.7,345 443.7,339.8 423.2,339.8 
		423.2,330.5 444.7,330.5 	"/>
	<path class="st0" d="M458.7,325.3l0,0.4c-0.3,3.9-3.5,5.9-9.5,5.9h-1.6l0,4.6h10l0,24.2h5.9l0-35.1H458.7z"/>
	<polygon class="st0" points="514.8,330.5 514.8,325.3 483,325.3 483,330.5 495.9,330.5 495.9,360.3 501.9,360.3 501.9,330.5 	"/>
	<path class="st0" d="M525.2,333.5c-4.7,0-8.6,1.4-11.3,4.1c-2.4,2.4-3.7,5.9-3.7,9.7c0,8.4,5.9,13.8,15,13.8
		c4.8,0,10.8-2.3,13.3-8.8l0.2-0.6h-6l-0.1,0.3c-1.7,3.8-6,4.2-7.7,4.2c-3.9,0-8.2-2.5-8.8-7.1h23.1v-1.1
		C539.2,337.3,531.9,333.5,525.2,333.5 M524.9,338.4c4.3,0,7.4,2.4,8.3,6.2h-16.8C517.2,340.9,520.6,338.4,524.9,338.4"/>
	<path class="st0" d="M571.3,356.1c-0.4,0.1-1.1,0.2-1.6,0.2c-1.2,0-1.7-0.5-1.7-1.7v-13.5c0-6.6-7.5-7.6-12-7.6
		c-8.2,0-12.3,2.9-12.9,9.1l0,0.5h5.4l0-0.4c0.1-3.1,2.5-4.6,7.3-4.6c4.8,0,6.8,1.1,6.8,3.7c0,1.9-1.2,2.3-4,2.6l-5.5,0.6
		c-7.9,0.9-11.2,3.2-11.2,8.2c0,2.4,1,8,10.6,8c3.5,0,8-1.1,10.4-3.5c0.7,2.6,2.7,3,4.6,3c1.3,0,2.7-0.1,3.8-0.3l0.4-0.1V356
		L571.3,356.1z M562.6,350c0,1.8-1,3.5-2.8,4.7c-1.8,1.2-4.2,1.9-6.8,1.9c-3.2,0-5.4-1.4-5.4-3.5c0-2.2,1.4-3.2,5.3-3.7l5.4-0.7
		c2-0.2,3.3-0.5,4.2-1V350z"/>
	<path class="st0" d="M619.1,342.8c0-7.3-6.3-9.3-10-9.3c-4.3,0-7.6,1.4-10.1,4.4c-1.9-2.8-5-4.4-8.6-4.4c-2.4,0-6.7,0.5-9.5,3.9
		l0-3h-5.7v26h5.7l0-14.9c0-2.2,0.8-4,2.3-5.3c1.4-1.2,3.3-1.8,5.5-1.8c2.6,0,5.6,1,5.6,5.6l0,16.4h5.7v-15.6c0-2.1,0.8-3.7,2.3-4.8
		c1.4-1,3.3-1.5,5.5-1.5c2.6,0,5.6,1,5.6,5.6l0,16.4h5.6V342.8z"/>
	<polygon class="st0" points="466,326.1 467.4,326.1 467.4,329.2 467.9,329.2 467.9,326.1 469.3,326.1 469.3,325.6 466,325.6 	"/>
	<polygon class="st0" points="471.9,328.6 470.5,325.6 469.7,325.6 469.7,329.2 470.2,329.2 470.2,326.3 470.3,326.3 471.7,329.2 
		472.1,329.2 473.6,326.2 473.6,326.2 473.6,329.2 474.1,329.2 474.1,325.6 473.4,325.6 	"/>
	<path class="st1" d="M341.3,257.6c-29.3,0-53,23.7-53,53c0,1,0,2,0.1,3h-7l-7.2,12.3h16.4c6.6,21.8,26.8,37.7,50.7,37.7
		c29.3,0,53-23.7,53-53S370.6,257.6,341.3,257.6 M303.6,325.9h13.6l-6.6,11.3C307.7,333.8,305.3,330,303.6,325.9 M341.3,351.3
		c-11,0-21-4.4-28.4-11.6h10l34.2-58.7h-13.9l-19,32.5h-23.6c-0.1-1-0.1-2-0.1-3c0-22.4,18.2-40.7,40.7-40.7
		c11.5,0,21.9,4.8,29.3,12.5l-18.2,31.2h-10l-7.2,12.3h10.1l-8.1,13.9h13.9l27.1-46.4c2.5,5.2,3.9,11.1,3.9,17.3
		C382,333,363.8,351.3,341.3,351.3"/>
	<path class="st1" d="M184.6,256.4c-0.1-0.2-0.4-0.4-0.7-0.4h-19.7c-0.3,0-0.5,0.1-0.7,0.4l-5.2,8.9h-17.9l4.8-8.1
		c0.1-0.2,0.1-0.5,0-0.8c-0.1-0.2-0.4-0.4-0.7-0.4h-19.7c-0.3,0-0.5,0.1-0.7,0.4l-5.2,8.9H91.9H44c-2.5,0-4.5,2-4.5,4.5v32.3h-8
		c-0.3,0-0.5,0.1-0.7,0.4l-10.2,17.4c-0.1,0.2-0.1,0.5,0,0.8c0.1,0.2,0.4,0.4,0.7,0.4h18.2v47h24.7l10-17.1h7.3l-18,30.8h-7.3
		l4.2-7.3h-21v9.2c0,2.5,2,4.5,4.5,4.5h123c2.5,0,4.5-2,4.5-4.5v-26.3h-24.8c-0.5,0-1,0.3-1.2,0.7l-2.7,4.6h9.3
		c2.1,0,3.4,2.3,2.4,4.1l-7.7,13.1c-0.6,1.1-1.8,1.8-3.1,1.8h-15.4h-4.7l0-7.3h-6.5l3.8-6.4h2.8l0-4.8l6.2-10.6v22.7h11.1
		c0.6,0,1.2-0.3,1.5-0.8l3.3-5.4h-9.6c-2.1,0-3.4-2.3-2.4-4.1l7.3-12.4c0.6-1.1,1.8-1.8,3.1-1.8h27.7v-71.1l13.2-22.5
		C184.8,257,184.8,256.7,184.6,256.4 M76.4,339.9l11.5-19.6H39.5H21.3l10.2-17.4h8H98l26.9-46.1h19.7l-5,8.5l-43.5,74.5H76.4z
		 M71,381.8l4.2-7.3h-5.3l3.8-6.4H79L89,351h7.3l-18,30.8H71z M82,381.8l18-30.8h7.2l-18,30.8H82z M110.6,381.8h-8.4l0-7.3h-6.7
		l3.8-6.4h2.9l0-5l6.1-10.4v19.9L121,351h7.6L110.6,381.8z M135.5,339.9h-19.7l11.5-19.6H113l10.2-17.4h14.2l26.9-46.1H184
		L135.5,339.9z"/>
	<path class="st2" d="M146.6,357.4h24.8v-6.6h-27.7c-1.3,0-2.5,0.7-3.1,1.8l-7.3,12.4c-1.1,1.8,0.3,4.1,2.4,4.1h9.6l-3.2,5.4
		c-0.3,0.5-0.9,0.8-1.5,0.8h-11.1v-22.7l-6.2,10.6l0,4.8h-2.8l-3.8,6.4h6.5l0,7.3h4.7h15.4c1.3,0,2.5-0.7,3.1-1.8l7.7-13.1
		c1.1-1.8-0.3-4.1-2.4-4.1h-9.3l2.7-4.6C145.7,357.7,146.1,357.4,146.6,357.4"/>
	<polygon class="st2" points="89,351 79,368.1 73.7,368.1 69.9,374.5 75.2,374.5 71,381.8 78.3,381.8 96.3,351 	"/>
	<polygon class="st2" points="74.2,351 64.2,368.1 39.5,368.1 39.5,374.5 60.5,374.5 56.2,381.8 63.5,381.8 81.5,351 	"/>
	<polygon class="st2" points="100,351 82,381.8 89.2,381.8 107.1,351 	"/>
	<polygon class="st2" points="121,351 108.2,372.5 108.2,352.7 102.1,363.1 102.1,368.1 99.2,368.1 95.5,374.5 102.1,374.5 
		102.1,381.8 110.6,381.8 128.5,351 	"/>
	<polygon class="st2" points="164.3,256.8 137.4,302.9 123.2,302.9 113,320.3 127.2,320.3 115.8,339.9 135.5,339.9 184,256.8 	"/>
	<polygon class="st2" points="124.9,256.8 98,302.9 31.5,302.9 21.3,320.3 87.9,320.3 76.4,339.9 96.1,339.9 144.6,256.8 	"/>
	<polygon class="st1" points="184.5,410.4 183.9,410.4 285.8,233.8 291.9,233.8 	"/>
</g>
</svg>
