<svg width="36" height="23" viewBox="0 0 36 23" fill="none" xmlns="http://www.w3.org/2000/svg">
<path d="M30.6631 12.6958L29.5557 12.5724L29.1714 16.0216L30.2788 16.145L30.6631 12.6958Z" fill="white" stroke="#A51C21" stroke-width="0.134801"/>
<path d="M31.2308 11.6439L30.9385 12.7191L34.2874 13.6297L34.5798 12.5544L31.2308 11.6439Z" fill="white" stroke="#A51C21" stroke-width="0.134801"/>
<path d="M30.7546 10.581L29.2794 12.1505L18.526 3.62414L21.6479 0.302679L30.7546 10.581Z" fill="white"/>
<path d="M28.5684 11.3782C28.7113 10.2967 29.7039 9.53575 30.7854 9.67865C31.867 9.82155 32.6279 10.8141 32.485 11.8957C32.3421 12.9772 31.3495 13.7381 30.2679 13.5952C29.202 13.4544 28.4445 12.4868 28.5635 11.4182" fill="white"/>
<path d="M28.5684 11.3782C28.7113 10.2967 29.7039 9.53575 30.7854 9.67865C31.867 9.82155 32.6279 10.8141 32.485 11.8957C32.3421 12.9772 31.3495 13.7381 30.2679 13.5952C29.202 13.4544 28.4445 12.4868 28.5635 11.4182" stroke="#A51C21" stroke-width="0.134801"/>
<path d="M29.3498 16.0074L29.6421 14.9322L32.9266 16.4216L32.6987 16.918L29.3498 16.0074Z" fill="white"/>
<path d="M34.6086 12.613L33.496 12.5518L33.875 16.1382L34.4179 16.0783L34.6086 12.613Z" fill="white"/>
<path d="M21.7438 5.20471L18.4492 2.84094L10.57 13.823L13.8646 16.1867L21.7438 5.20471Z" fill="white"/>
<path d="M9.54114 15.9766H3.92571C3.43603 15.9766 3.03906 16.3735 3.03906 16.8632V18.7843C3.03906 19.274 3.43603 19.6709 3.92571 19.6709H9.54114C10.0308 19.6709 10.4278 19.274 10.4278 18.7843V16.8632C10.4278 16.3735 10.0308 15.9766 9.54114 15.9766Z" fill="white" stroke="#A51C21" stroke-width="0.134801"/>
<path d="M7.69499 16.5404C7.73042 14.8065 9.16476 13.4296 10.8987 13.465C12.6326 13.5004 14.0095 14.9348 13.9741 16.6687C13.9387 18.4026 12.5043 19.7796 10.7704 19.7441C9.06147 19.7092 7.69434 18.3139 7.69434 16.6046" fill="white"/>
<path d="M7.69499 16.5404C7.73042 14.8065 9.16476 13.4296 10.8987 13.465C12.6326 13.5004 14.0095 14.9348 13.9741 16.6687C13.9387 18.4026 12.5043 19.7796 10.7704 19.7441C9.06147 19.7092 7.69434 18.3139 7.69434 16.6046" stroke="#A51C21" stroke-width="0.134801"/>
<path d="M18.1324 3.07417C18.1644 1.50804 19.46 0.264383 21.0261 0.29638C22.5922 0.328378 23.8359 1.62391 23.8039 3.19004C23.7719 4.75617 22.4763 5.99983 20.9102 5.96783C19.3667 5.93629 18.1318 4.67598 18.1318 3.1321" fill="white"/>
<path d="M18.1324 3.07417C18.1644 1.50804 19.46 0.264383 21.0261 0.29638C22.5922 0.328378 23.8359 1.62391 23.8039 3.19004C23.7719 4.75617 22.4763 5.99983 20.9102 5.96783C19.3667 5.93629 18.1318 4.67598 18.1318 3.1321" stroke="#A51C21" stroke-width="0.134801"/>
<path d="M16.0049 19.8462H0.810374C0.362817 19.8462 0 20.209 0 20.6566V21.9734C0 22.421 0.362817 22.7838 0.810374 22.7838H16.0049C16.4525 22.7838 16.8153 22.421 16.8153 21.9734V20.6566C16.8153 20.209 16.4525 19.8462 16.0049 19.8462Z" fill="white"/>
</svg>
