<svg width="120" height="54" viewBox="0 0 120 54" fill="none" xmlns="http://www.w3.org/2000/svg">
<path d="M27.2881 9.89951C31.4959 9.71842 31.4959 9.71842 35.7888 9.53366C36.6613 9.48037 37.5338 9.42708 38.4328 9.37217C39.1466 9.34743 39.8567 9.32699 40.5705 9.32787C40.7097 9.32763 40.7097 9.32763 40.8518 9.32739C43.7484 9.33655 45.6664 9.96201 47.7454 12.0197C48.8878 13.1901 49.8899 14.447 50.8749 15.7532C50.9033 13.8215 50.9317 11.8898 50.961 9.89951C53.5997 9.66706 53.5997 9.66706 54.7491 9.61789C55.5296 9.58423 56.3063 9.54575 57.0834 9.46441C60.0339 9.16306 62.4959 9.52511 64.8722 11.427C67.0579 13.2539 68.3495 15.2786 68.6298 18.1431C68.841 20.6196 68.7258 23.1131 68.593 25.5908C68.5468 26.4641 68.5157 27.3371 68.4944 28.2114C68.4929 28.2737 68.4914 28.3359 68.4898 28.4001C68.4823 28.7126 68.475 29.0252 68.4679 29.3378C68.4088 31.8993 68.303 34.4563 68.1776 37.0157C65.9902 37.0157 63.8029 37.0157 61.5492 37.0157C61.5492 30.0843 61.5492 23.1529 61.5492 16.0114C58.0835 16.0114 54.6178 16.0114 51.0471 16.0114C51.0471 22.9428 51.0471 29.8743 51.0471 37.0157C48.8597 37.0157 46.6723 37.0157 44.4186 37.0157C44.4186 30.0843 44.4186 23.1529 44.4186 16.0114C40.9245 16.0114 37.4304 16.0114 33.8304 16.0114C33.8304 22.9428 33.8304 29.8743 33.8304 37.0157C31.6714 37.0157 29.5125 37.0157 27.2881 37.0157C27.2881 28.0674 27.2881 19.119 27.2881 9.89951Z" fill="#A51C21"/>
<path d="M72.999 9.89953C76.8127 9.7788 80.6264 9.65807 84.5557 9.53368C86.3431 9.45374 86.3431 9.45374 88.1666 9.37219C96.0348 9.15717 96.0348 9.15717 98.9183 10.8503C98.9878 10.8885 99.0573 10.9266 99.1289 10.966C100.924 11.9938 101.679 14.0661 102.698 15.7532C102.698 19.3041 102.698 22.8551 102.698 26.5136C95.0561 26.5136 87.4145 26.5136 79.5413 26.5136C79.5413 29.9793 79.5413 33.445 79.5413 37.0157C77.3824 37.0157 75.2234 37.0157 72.999 37.0157C72.999 28.0674 72.999 19.119 72.999 9.89953ZM79.5413 16.0114C79.5413 17.4602 79.5413 18.909 79.5413 20.4017C84.9956 20.4017 90.4498 20.4017 96.0693 20.4017C96.0693 18.9529 96.0693 17.5041 96.0693 16.0114C90.6151 16.0114 85.1609 16.0114 79.5413 16.0114Z" fill="#A51C21"/>
<path d="M15.9258 9.89951C16.5101 9.89951 16.6983 9.95275 17.1361 10.2708C17.2223 10.3317 17.2223 10.3317 17.3101 10.3938C19.7002 12.1164 22.3254 14.3043 22.8425 17.345C23.0167 18.5751 23.0522 19.8113 23.0482 21.0517C23.0479 21.1383 23.0479 21.1383 23.0477 21.2268C23.0425 22.7196 22.979 24.2084 22.8959 25.6987C22.8483 26.5637 22.8162 27.4284 22.7944 28.2944C22.792 28.387 22.792 28.387 22.7897 28.4814C22.7819 28.7911 22.7744 29.1009 22.767 29.4107C22.7062 31.9479 22.5973 34.4809 22.4681 37.0157C20.3091 37.0157 18.1502 37.0157 15.9258 37.0157C15.9258 28.0674 15.9258 19.119 15.9258 9.89951Z" fill="#A51C21"/>
<path d="M15.7529 38.6513C16.1833 38.7374 16.1833 38.7374 16.3387 38.9327C16.3853 39.0172 16.4319 39.1017 16.4799 39.1887C16.5318 39.2805 16.5836 39.3722 16.637 39.4668C16.6897 39.5634 16.7424 39.6601 16.7967 39.7597C16.9024 39.9497 17.0084 40.1396 17.1148 40.3293C17.1844 40.4563 17.1844 40.4563 17.2554 40.5858C17.372 40.7765 17.4808 40.9142 17.6468 41.0617C17.6698 41.0004 17.6928 40.9392 17.7165 40.8762C17.822 40.6238 17.9451 40.3937 18.0805 40.1561C18.1554 40.0242 18.1554 40.0242 18.2319 39.8896C18.2838 39.7988 18.3357 39.708 18.3892 39.6144C18.4418 39.5219 18.4944 39.4294 18.5486 39.3341C18.6782 39.1064 18.808 38.8788 18.938 38.6513C19.0516 38.6513 19.1653 38.6513 19.2823 38.6513C19.2823 39.7876 19.2823 40.9239 19.2823 42.0947C19.1687 42.0947 19.0551 42.0947 18.938 42.0947C18.9096 41.2708 18.8812 40.447 18.8519 39.5983C18.4826 40.2516 18.1133 40.905 17.7328 41.5782C17.6192 41.5782 17.5056 41.5782 17.3885 41.5782C17.2388 41.3885 17.2388 41.3885 17.0913 41.1262C17.0432 41.0423 16.9951 40.9584 16.9456 40.872C16.8559 40.7102 16.8559 40.7102 16.7644 40.5452C16.5727 40.2043 16.3809 39.8634 16.1833 39.5122C16.1549 40.3644 16.1265 41.2166 16.0973 42.0947C15.9836 42.0947 15.87 42.0947 15.7529 42.0947C15.7529 40.9584 15.7529 39.8221 15.7529 38.6513Z" fill="#CACACA"/>
<path d="M40.8896 38.6513C41.3792 38.7493 41.4268 38.8146 41.7236 39.1894C41.76 39.2349 41.7965 39.2803 41.8341 39.3272C41.951 39.474 42.0661 39.622 42.1809 39.7704C42.2202 39.8209 42.2596 39.8713 42.3001 39.9232C42.638 40.3567 42.9702 40.7942 43.3 41.2338C43.3284 40.3816 43.3568 39.5294 43.3861 38.6513C43.4997 38.6513 43.6133 38.6513 43.7304 38.6513C43.7304 39.7876 43.7304 40.9239 43.7304 42.0947C43.3809 42.0073 43.3425 41.9973 43.1379 41.7382C43.0929 41.682 43.0479 41.6258 43.0015 41.5679C42.9544 41.5074 42.9073 41.4469 42.8588 41.3845C42.8099 41.323 42.7611 41.2615 42.7108 41.1982C42.5618 41.01 42.4141 40.8209 42.267 40.6313C42.2226 40.5741 42.1782 40.5169 42.1324 40.4579C41.9417 40.2118 41.752 39.9649 41.5635 39.717C41.4242 39.5265 41.4242 39.5265 41.3201 39.4261C41.2917 40.3067 41.2632 41.1873 41.234 42.0947C41.1204 42.0947 41.0067 42.0947 40.8896 42.0947C40.8896 40.9584 40.8896 39.8221 40.8896 38.6513Z" fill="#CACACA"/>
<path d="M80.0576 38.6513C80.3701 38.6442 80.6826 38.6371 81.0045 38.6298C81.1016 38.6266 81.1987 38.6235 81.2988 38.6203C81.8518 38.6142 82.2694 38.6692 82.7262 38.9956C82.8846 39.152 82.8846 39.152 82.9791 39.3023C83.0118 39.3521 83.0445 39.4019 83.0783 39.4533C83.3282 39.9157 83.3303 40.5055 83.1839 41.0034C82.9939 41.4173 82.7597 41.6706 82.3819 41.9225C81.7793 42.0946 81.7793 42.0946 80.0576 42.0946C80.0576 40.9583 80.0576 39.822 80.0576 38.6513ZM80.402 38.9095C80.402 39.847 80.402 40.7844 80.402 41.7503C80.6328 41.7556 80.8636 41.7609 81.1014 41.7664C81.2089 41.77 81.2089 41.77 81.3186 41.7736C81.7999 41.7789 82.1585 41.7006 82.5234 41.3599C82.9025 40.8642 82.9506 40.5602 82.8984 39.9425C82.755 39.535 82.5707 39.3168 82.2097 39.0817C81.5798 38.8415 81.5798 38.8415 80.402 38.9095Z" fill="#CBCBCB"/>
<path d="M76.872 38.8235C77.2578 39.169 77.5412 39.4904 77.5781 40.0223C77.592 41.023 77.592 41.023 77.3024 41.406C76.8627 41.8544 76.4566 42.1176 75.8121 42.1269C75.2848 42.1156 74.8875 41.9924 74.502 41.6246C74.0708 41.1307 73.9923 40.7617 74.004 40.1188C74.0542 39.6352 74.2339 39.3134 74.5693 38.9688C75.3087 38.515 76.0824 38.4009 76.872 38.8235ZM74.5047 39.566C74.3194 39.9829 74.3093 40.3543 74.3756 40.8034C74.587 41.234 74.8918 41.535 75.3225 41.7503C75.7749 41.7954 76.1528 41.8076 76.5653 41.6051C76.9917 41.2203 77.2668 40.8719 77.3024 40.2869C77.2311 39.7478 77.0108 39.4224 76.5895 39.0898C75.8245 38.603 75.063 38.9798 74.5047 39.566Z" fill="#CACACA"/>
<path d="M51.3916 38.6513C51.6934 38.6442 51.9953 38.6371 52.3062 38.6298C52.4004 38.6267 52.4946 38.6235 52.5916 38.6203C53.1115 38.6144 53.4074 38.6479 53.8019 38.9957C54.074 39.3131 54.105 39.6046 54.0908 40.0095C54.0426 40.3108 53.9173 40.4935 53.7158 40.7173C53.5316 40.7738 53.5316 40.7738 53.3715 40.8034C53.413 40.8678 53.4545 40.9321 53.4973 40.9984C53.5788 41.1256 53.5788 41.1256 53.662 41.2553C53.716 41.3392 53.7699 41.4231 53.8255 41.5096C53.9441 41.7017 54.0501 41.8907 54.1463 42.0946C53.9543 42.1236 53.9543 42.1236 53.7158 42.0946C53.5232 41.8936 53.5232 41.8936 53.3446 41.632C53.2846 41.5461 53.2245 41.4602 53.1627 41.3717C53.0272 41.1477 53.0272 41.1477 53.0272 40.9756C52.6011 40.9756 52.175 40.9756 51.7359 40.9756C51.7359 41.3449 51.7359 41.7142 51.7359 42.0946C51.6223 42.0946 51.5087 42.0946 51.3916 42.0946C51.3916 40.9584 51.3916 39.8221 51.3916 38.6513ZM51.7359 38.9096C51.7359 39.4777 51.7359 40.0459 51.7359 40.6312C51.9543 40.6366 52.1727 40.6419 52.3977 40.6474C52.4997 40.6509 52.4997 40.6509 52.6037 40.6545C52.994 40.6591 53.237 40.6171 53.5437 40.373C53.76 40.0486 53.7615 39.8968 53.7158 39.5122C53.577 39.2638 53.4112 39.044 53.1375 38.9388C52.6767 38.8702 52.1998 38.9053 51.7359 38.9096Z" fill="#CACACA"/>
<path d="M69.2109 38.6513C69.4986 38.646 69.7862 38.6407 70.0825 38.6352C70.217 38.6317 70.217 38.6317 70.3543 38.6281C70.891 38.6233 71.2821 38.6739 71.6912 39.0548C71.9079 39.4768 71.9173 39.8187 71.7827 40.26C71.6171 40.5526 71.4408 40.7526 71.1909 40.9756C71.2406 41.0419 71.2903 41.1083 71.3415 41.1767C71.4054 41.263 71.4693 41.3493 71.5352 41.4383C71.6311 41.5671 71.6311 41.5671 71.7289 41.6985C71.8795 41.9225 71.8795 41.9225 71.8795 42.0947C71.6828 42.0812 71.6828 42.0812 71.4491 42.0086C71.2988 41.7961 71.2988 41.7961 71.1532 41.5351C70.9326 41.2066 70.8359 41.0814 70.448 40.98C70.1471 40.9614 69.8561 40.9574 69.5553 40.9756C69.5553 41.3449 69.5553 41.7142 69.5553 42.0947C69.4416 42.0947 69.328 42.0947 69.2109 42.0947C69.2109 40.9584 69.2109 39.8221 69.2109 38.6513ZM69.5553 38.9096C69.5553 39.4777 69.5553 40.0459 69.5553 40.6312C69.7719 40.6401 69.9885 40.649 70.2117 40.6581C70.2789 40.6621 70.3461 40.666 70.4153 40.67C70.7536 40.6767 70.9616 40.6448 71.2302 40.4302C71.4834 40.1649 71.5426 40.0489 71.5352 39.6843C71.4259 39.3566 71.3423 39.2088 71.0479 39.0246C70.5557 38.8277 70.0805 38.8947 69.5553 38.9096Z" fill="#CACACA"/>
<path d="M22.9839 38.6513C23.126 38.6513 23.268 38.6513 23.4143 38.6513C23.8056 39.4098 24.1709 40.179 24.528 40.9541C24.5708 41.0463 24.6136 41.1386 24.6576 41.2337C24.6973 41.3203 24.737 41.4069 24.7779 41.4961C24.8137 41.5741 24.8496 41.6521 24.8865 41.7324C24.9638 41.9225 24.9638 41.9225 24.9638 42.0947C24.7701 42.0947 24.7701 42.0947 24.5334 42.0086C24.3564 41.7512 24.1891 41.4651 24.1891 41.1477C23.5641 41.1762 22.9392 41.2046 22.2953 41.2338C22.1532 41.5179 22.0112 41.802 21.8648 42.0947C21.7512 42.0947 21.6376 42.0947 21.5205 42.0947C21.5759 41.7065 21.7261 41.3786 21.8944 41.0287C21.9228 40.9688 21.9511 40.9089 21.9803 40.8471C22.0705 40.6566 22.1613 40.4664 22.2522 40.2762C22.343 40.0853 22.4336 39.8943 22.5241 39.7033C22.5804 39.5847 22.6368 39.4662 22.6934 39.3478C22.803 39.1175 22.9032 38.8936 22.9839 38.6513ZM23.1561 39.0818C23.0408 39.3362 22.9262 39.5909 22.8118 39.8457C22.7789 39.9182 22.7461 39.9907 22.7122 40.0653C22.6812 40.1347 22.6501 40.204 22.6181 40.2755C22.5892 40.3395 22.5604 40.4035 22.5306 40.4695C22.457 40.629 22.457 40.629 22.4674 40.8034C22.9788 40.8034 23.4901 40.8034 24.0169 40.8034C23.9064 40.5323 23.7951 40.2616 23.6833 39.991C23.6362 39.8751 23.6362 39.8751 23.5882 39.7568C23.5577 39.6833 23.5272 39.6098 23.4957 39.534C23.4678 39.466 23.4398 39.3979 23.411 39.3277C23.3404 39.1528 23.3404 39.1528 23.1561 39.0818Z" fill="#CBCBCB"/>
<path d="M64.1318 38.6513C64.4195 38.646 64.7071 38.6407 65.0034 38.6352C65.1379 38.6317 65.1379 38.6317 65.2752 38.6281C65.8121 38.6233 66.1971 38.6773 66.6121 39.0495C66.7707 39.3666 66.8102 39.6755 66.8004 40.0287C66.6618 40.4369 66.4669 40.6498 66.1117 40.8895C65.7878 40.9975 65.4857 40.9848 65.1487 40.9809C65.0842 40.9806 65.0196 40.9802 64.9532 40.9798C64.7942 40.9788 64.6352 40.9772 64.4762 40.9756C64.4762 41.3449 64.4762 41.7142 64.4762 42.0946C64.3625 42.0946 64.2489 42.0946 64.1318 42.0946C64.1318 40.9584 64.1318 39.8221 64.1318 38.6513ZM64.4762 38.9096C64.4762 39.4777 64.4762 40.0459 64.4762 40.6312C64.6946 40.6366 64.9129 40.6419 65.1379 40.6474C65.2399 40.6509 65.2399 40.6509 65.344 40.6545C65.7338 40.6591 65.9765 40.6154 66.2839 40.373C66.4458 40.1081 66.4562 39.9482 66.4507 39.6359C66.354 39.2812 66.2477 39.1864 65.9396 38.9957C65.4725 38.8399 64.9642 38.9051 64.4762 38.9096Z" fill="#CACACA"/>
<path d="M32.1953 38.6513C32.3089 38.6513 32.4226 38.6513 32.5396 38.6513C32.5396 39.1627 32.5396 39.674 32.5396 40.2008C33.2498 40.2008 33.96 40.2008 34.6917 40.2008C34.6917 39.6895 34.6917 39.1782 34.6917 38.6513C34.8054 38.6513 34.919 38.6513 35.0361 38.6513C35.0361 39.7876 35.0361 40.9239 35.0361 42.0947C34.9224 42.0947 34.8088 42.0947 34.6917 42.0947C34.6917 41.5549 34.6917 41.0152 34.6917 40.4591C33.9815 40.4591 33.2714 40.4591 32.5396 40.4591C32.5396 40.9988 32.5396 41.5386 32.5396 42.0947C32.426 42.0947 32.3124 42.0947 32.1953 42.0947C32.1953 40.9584 32.1953 39.8221 32.1953 38.6513Z" fill="#CBCBCB"/>
<path d="M46.4854 38.6513C47.2808 38.6513 48.0762 38.6513 48.8957 38.6513C48.8957 38.7366 48.8957 38.8218 48.8957 38.9096C48.2139 38.9096 47.5321 38.9096 46.8297 38.9096C46.8297 39.3357 46.8297 39.7618 46.8297 40.2008C47.4262 40.2008 48.0228 40.2008 48.6374 40.2008C48.6374 40.2861 48.6374 40.3713 48.6374 40.4591C48.0409 40.4591 47.4443 40.4591 46.8297 40.4591C46.8297 40.8852 46.8297 41.3113 46.8297 41.7503C47.5115 41.7503 48.1932 41.7503 48.8957 41.7503C48.8957 41.864 48.8957 41.9776 48.8957 42.0947C48.1003 42.0947 47.3049 42.0947 46.4854 42.0947C46.4854 40.9584 46.4854 39.8221 46.4854 38.6513Z" fill="#CBCBCB"/>
<path d="M102.611 38.8235C102.611 38.9371 102.611 39.0507 102.611 39.1678C102.202 39.0925 102.202 39.0925 102.009 38.9956C101.81 38.9753 101.81 38.9753 101.589 38.9741C101.515 38.9719 101.44 38.9697 101.364 38.9674C101.104 39.0013 100.99 39.0722 100.804 39.2539C100.739 39.5121 100.739 39.5121 100.804 39.7704C101.113 39.9988 101.425 40.0926 101.794 40.19C102.546 40.4168 102.546 40.4168 102.784 40.8034C102.864 41.171 102.829 41.4148 102.638 41.7395C102.238 42.1076 101.827 42.1321 101.303 42.1222C100.955 42.0824 100.641 41.9821 100.373 41.7503C100.312 41.566 100.312 41.566 100.287 41.406C100.48 41.4487 100.648 41.4996 100.829 41.5798C101.08 41.671 101.274 41.69 101.541 41.6911C101.621 41.6926 101.701 41.694 101.783 41.6955C102.049 41.6587 102.166 41.5967 102.353 41.406C102.382 41.0939 102.382 41.0939 102.353 40.8034C102.3 40.7877 102.247 40.7721 102.192 40.756C102.039 40.7106 101.887 40.6647 101.734 40.6184C101.581 40.5721 101.428 40.5267 101.275 40.4826C100.571 40.2695 100.571 40.2695 100.373 39.9425C100.304 39.5554 100.322 39.2637 100.508 38.9149C101.076 38.4338 101.978 38.4615 102.611 38.8235Z" fill="#CBCBCB"/>
<path d="M85.6524 38.6513C85.766 38.6513 85.8796 38.6513 85.9967 38.6513C85.998 38.719 85.9992 38.7867 86.0005 38.8565C86.0069 39.1648 86.0153 39.473 86.0236 39.7812C86.0255 39.8877 86.0275 39.9942 86.0295 40.104C86.0325 40.2072 86.0356 40.3104 86.0387 40.4167C86.041 40.5114 86.0432 40.6061 86.0456 40.7036C86.0882 41.0151 86.178 41.2243 86.341 41.4921C86.6189 41.6773 86.703 41.6877 87.0243 41.6858C87.0979 41.6862 87.1715 41.6867 87.2473 41.6871C87.4927 41.6607 87.6097 41.6466 87.8045 41.4921C88.1058 40.9073 88.1089 40.3326 88.1219 39.6843C88.1248 39.5848 88.1278 39.4853 88.1308 39.3827C88.1378 39.1389 88.1438 38.8952 88.1488 38.6513C88.2624 38.6513 88.376 38.6513 88.4931 38.6513C88.5007 38.9939 88.5052 39.3364 88.5093 39.679C88.5114 39.7751 88.5136 39.8713 88.5158 39.9703C88.5217 40.6335 88.4901 41.2464 88.0735 41.788C87.6109 42.1281 87.159 42.1513 86.5993 42.0947C86.1497 41.9448 85.9652 41.7315 85.7385 41.3199C85.6397 41.0238 85.6425 40.7442 85.644 40.4335C85.6442 40.3298 85.6445 40.226 85.6448 40.1191C85.6455 40.0112 85.6462 39.9032 85.647 39.7919C85.6474 39.6826 85.6478 39.5733 85.6482 39.4607C85.6492 39.1909 85.6506 38.9211 85.6524 38.6513Z" fill="#CBCBCB"/>
<path d="M93.9165 38.9956C93.8597 39.1093 93.8029 39.2229 93.7444 39.34C93.6467 39.2832 93.5491 39.2263 93.4485 39.1678C93.0527 38.972 92.7168 38.9188 92.281 38.9956C91.8256 39.1552 91.5553 39.431 91.334 39.8565C91.1983 40.2637 91.2691 40.5726 91.4121 40.9651C91.5867 41.3038 91.8558 41.4947 92.1949 41.6642C92.7277 41.7088 93.123 41.7191 93.5722 41.406C93.7713 41.4329 93.7713 41.4329 93.9165 41.492C93.8312 41.767 93.7427 41.8374 93.4915 41.987C92.956 42.1889 92.3484 42.1934 91.8236 41.9601C91.3967 41.7141 91.0599 41.3582 90.9036 40.8895C90.8489 40.226 90.8255 39.7015 91.248 39.1678C92.0342 38.3816 93.0303 38.4048 93.9165 38.9956Z" fill="#CBCBCB"/>
<path d="M29.6128 38.8234C29.7268 38.9943 29.7268 38.9943 29.7849 39.1678C29.7565 39.2246 29.7281 39.2814 29.6989 39.3399C29.6509 39.3151 29.603 39.2902 29.5536 39.2646C29.4879 39.2327 29.4222 39.2007 29.3545 39.1678C29.2906 39.1358 29.2267 39.1039 29.1608 39.0709C28.6998 38.9242 28.3086 38.9396 27.8696 39.1301C27.5169 39.3287 27.3241 39.5556 27.2025 39.9425C27.1334 40.3488 27.1583 40.6845 27.3531 41.0508C27.5944 41.3859 27.7606 41.5346 28.1494 41.6642C28.6861 41.7122 29.0501 41.6733 29.5267 41.4059C29.6119 41.4343 29.6971 41.4628 29.7849 41.492C29.6986 41.7703 29.6105 41.8377 29.3545 41.987C28.793 42.1995 28.1669 42.1669 27.6174 41.9322C27.2602 41.7138 27.0365 41.389 26.8258 41.0347C26.6855 40.4311 26.7205 39.8847 27.0303 39.3399C27.7157 38.5463 28.6606 38.3037 29.6128 38.8234Z" fill="#CBCBCB"/>
<path d="M55.9541 38.6513C56.1529 38.628 56.1529 38.628 56.3845 38.6513C56.5255 38.808 56.5255 38.808 56.6465 39.0249C56.6909 39.1022 56.7354 39.1795 56.7811 39.2591C56.826 39.3409 56.8709 39.4226 56.9172 39.5068C57.0077 39.6674 57.0986 39.8278 57.1899 39.988C57.2295 40.0597 57.2691 40.1313 57.31 40.2052C57.4051 40.3852 57.4051 40.3852 57.5897 40.4591C57.6104 40.4018 57.6312 40.3446 57.6526 40.2856C57.79 39.9625 57.9565 39.6645 58.1331 39.3615C58.1657 39.3026 58.1982 39.2437 58.2318 39.183C58.4815 38.7562 58.4815 38.7562 58.777 38.6554C58.8711 38.6534 58.8711 38.6534 58.967 38.6513C58.8578 38.9461 58.7314 39.1952 58.5551 39.455C57.9726 40.3444 57.5904 41.011 57.6758 42.0947C57.5621 42.0947 57.4485 42.0947 57.3314 42.0947C57.3392 42.0306 57.347 41.9666 57.355 41.9006C57.3891 40.7895 56.7559 39.9927 56.1592 39.1015C56.0402 38.9096 56.0402 38.9096 55.9541 38.6513Z" fill="#C9C9C9"/>
<path d="M95.7246 38.6513C96.6336 38.6513 97.5427 38.6513 98.4793 38.6513C98.4793 38.7366 98.4793 38.8218 98.4793 38.9096C98.0816 38.9096 97.6839 38.9096 97.2741 38.9096C97.2741 39.9607 97.2741 41.0117 97.2741 42.0947C97.1605 42.0947 97.0468 42.0947 96.9298 42.0947C96.9298 41.0436 96.9298 39.9925 96.9298 38.9096C96.5321 38.9096 96.1344 38.9096 95.7246 38.9096C95.7246 38.8244 95.7246 38.7391 95.7246 38.6513Z" fill="#C8C8C8"/>
<path d="M37.791 38.6513C37.9046 38.6513 38.0183 38.6513 38.1353 38.6513C38.1353 39.7876 38.1353 40.9239 38.1353 42.0947C38.0217 42.0947 37.9081 42.0947 37.791 42.0947C37.791 40.9584 37.791 39.8221 37.791 38.6513Z" fill="#CACACA"/>
</svg>
