<svg width="360" height="116" viewBox="0 0 360 116" fill="none" xmlns="http://www.w3.org/2000/svg">
<path d="M1.46484 111V96.6836H4.35547V102.318H10.0195V96.6836H12.9102V111H10.0195V104.74H4.35547V111H1.46484ZM17.9395 103.793L15.4492 103.344C15.7292 102.341 16.2109 101.599 16.8945 101.117C17.5781 100.635 18.5938 100.395 19.9414 100.395C21.1654 100.395 22.0768 100.541 22.6758 100.834C23.2747 101.12 23.6947 101.488 23.9355 101.938C24.1829 102.38 24.3066 103.197 24.3066 104.389L24.2773 107.592C24.2773 108.503 24.3197 109.177 24.4043 109.613C24.4954 110.043 24.6615 110.505 24.9023 111H22.1875C22.1159 110.818 22.028 110.548 21.9238 110.189C21.8783 110.027 21.8457 109.919 21.8262 109.867C21.3574 110.323 20.8561 110.665 20.3223 110.893C19.7884 111.12 19.2188 111.234 18.6133 111.234C17.5456 111.234 16.7025 110.945 16.084 110.365C15.472 109.786 15.166 109.053 15.166 108.168C15.166 107.582 15.306 107.061 15.5859 106.605C15.8659 106.143 16.2565 105.792 16.7578 105.551C17.2656 105.303 17.9948 105.089 18.9453 104.906C20.2279 104.665 21.1165 104.441 21.6113 104.232V103.959C21.6113 103.432 21.4811 103.057 21.2207 102.836C20.9603 102.608 20.4688 102.494 19.7461 102.494C19.2578 102.494 18.877 102.592 18.6035 102.787C18.3301 102.976 18.1087 103.311 17.9395 103.793ZM21.6113 106.02C21.2598 106.137 20.7031 106.277 19.9414 106.439C19.1797 106.602 18.6816 106.762 18.4473 106.918C18.0892 107.172 17.9102 107.494 17.9102 107.885C17.9102 108.269 18.0534 108.601 18.3398 108.881C18.6263 109.161 18.9909 109.301 19.4336 109.301C19.9284 109.301 20.4004 109.138 20.8496 108.812C21.1816 108.565 21.3997 108.262 21.5039 107.904C21.5755 107.67 21.6113 107.224 21.6113 106.566V106.02ZM29.0723 103.793L26.582 103.344C26.862 102.341 27.3438 101.599 28.0273 101.117C28.7109 100.635 29.7266 100.395 31.0742 100.395C32.2982 100.395 33.2096 100.541 33.8086 100.834C34.4076 101.12 34.8275 101.488 35.0684 101.938C35.3158 102.38 35.4395 103.197 35.4395 104.389L35.4102 107.592C35.4102 108.503 35.4525 109.177 35.5371 109.613C35.6283 110.043 35.7943 110.505 36.0352 111H33.3203C33.2487 110.818 33.1608 110.548 33.0566 110.189C33.0111 110.027 32.9785 109.919 32.959 109.867C32.4902 110.323 31.9889 110.665 31.4551 110.893C30.9212 111.12 30.3516 111.234 29.7461 111.234C28.6784 111.234 27.8353 110.945 27.2168 110.365C26.6048 109.786 26.2988 109.053 26.2988 108.168C26.2988 107.582 26.4388 107.061 26.7188 106.605C26.9987 106.143 27.3893 105.792 27.8906 105.551C28.3984 105.303 29.1276 105.089 30.0781 104.906C31.3607 104.665 32.2493 104.441 32.7441 104.232V103.959C32.7441 103.432 32.6139 103.057 32.3535 102.836C32.0931 102.608 31.6016 102.494 30.8789 102.494C30.3906 102.494 30.0098 102.592 29.7363 102.787C29.4629 102.976 29.2415 103.311 29.0723 103.793ZM32.7441 106.02C32.3926 106.137 31.8359 106.277 31.0742 106.439C30.3125 106.602 29.8145 106.762 29.5801 106.918C29.222 107.172 29.043 107.494 29.043 107.885C29.043 108.269 29.1862 108.601 29.4727 108.881C29.7591 109.161 30.1237 109.301 30.5664 109.301C31.0612 109.301 31.5332 109.138 31.9824 108.812C32.3145 108.565 32.5326 108.262 32.6367 107.904C32.7083 107.67 32.7441 107.224 32.7441 106.566V106.02ZM37.1875 108.041L39.9414 107.621C40.0586 108.155 40.2962 108.562 40.6543 108.842C41.0124 109.115 41.5137 109.252 42.1582 109.252C42.8678 109.252 43.4017 109.122 43.7598 108.861C44.0007 108.679 44.1211 108.435 44.1211 108.129C44.1211 107.921 44.056 107.748 43.9258 107.611C43.7891 107.481 43.4831 107.361 43.0078 107.25C40.7943 106.762 39.3913 106.316 38.7988 105.912C37.9785 105.352 37.5684 104.574 37.5684 103.578C37.5684 102.68 37.9232 101.924 38.6328 101.312C39.3424 100.701 40.4427 100.395 41.9336 100.395C43.3529 100.395 44.4076 100.626 45.0977 101.088C45.7878 101.55 46.263 102.234 46.5234 103.139L43.9355 103.617C43.8249 103.214 43.6133 102.904 43.3008 102.689C42.9948 102.475 42.5553 102.367 41.9824 102.367C41.2598 102.367 40.7422 102.468 40.4297 102.67C40.2214 102.813 40.1172 102.999 40.1172 103.227C40.1172 103.422 40.2083 103.588 40.3906 103.725C40.638 103.907 41.4909 104.164 42.9492 104.496C44.4141 104.828 45.4362 105.235 46.0156 105.717C46.5885 106.205 46.875 106.885 46.875 107.758C46.875 108.708 46.4779 109.525 45.6836 110.209C44.8893 110.893 43.7142 111.234 42.1582 111.234C40.7454 111.234 39.6257 110.948 38.7988 110.375C37.9785 109.802 37.4414 109.024 37.1875 108.041ZM59.6094 100.629V102.816H57.7344V106.996C57.7344 107.842 57.7507 108.337 57.7832 108.48C57.8223 108.617 57.9036 108.731 58.0273 108.822C58.1576 108.913 58.3138 108.959 58.4961 108.959C58.75 108.959 59.1178 108.871 59.5996 108.695L59.834 110.824C59.196 111.098 58.4733 111.234 57.666 111.234C57.1712 111.234 56.7253 111.153 56.3281 110.99C55.931 110.821 55.638 110.606 55.4492 110.346C55.2669 110.079 55.14 109.721 55.0684 109.271C55.0098 108.952 54.9805 108.308 54.9805 107.338V102.816H53.7207V100.629H54.9805V98.5684L57.7344 96.9668V100.629H59.6094ZM67.5195 107.699L70.2539 108.158C69.9023 109.161 69.3457 109.926 68.584 110.453C67.8288 110.974 66.8815 111.234 65.7422 111.234C63.9388 111.234 62.6042 110.645 61.7383 109.467C61.0547 108.523 60.7129 107.331 60.7129 105.893C60.7129 104.174 61.1621 102.829 62.0605 101.859C62.959 100.883 64.0951 100.395 65.4688 100.395C67.0117 100.395 68.2292 100.906 69.1211 101.928C70.013 102.943 70.4395 104.503 70.4004 106.605H63.5254C63.5449 107.419 63.7663 108.054 64.1895 108.51C64.6126 108.959 65.14 109.184 65.7715 109.184C66.2012 109.184 66.5625 109.066 66.8555 108.832C67.1484 108.598 67.3698 108.22 67.5195 107.699ZM67.6758 104.926C67.6562 104.132 67.4512 103.529 67.0605 103.119C66.6699 102.702 66.1947 102.494 65.6348 102.494C65.0358 102.494 64.541 102.712 64.1504 103.148C63.7598 103.585 63.5677 104.177 63.5742 104.926H67.6758ZM81.6895 103.695L78.9844 104.184C78.8932 103.643 78.6849 103.236 78.3594 102.963C78.0404 102.689 77.6237 102.553 77.1094 102.553C76.4258 102.553 75.8789 102.79 75.4688 103.266C75.0651 103.734 74.8633 104.522 74.8633 105.629C74.8633 106.859 75.0684 107.729 75.4785 108.236C75.8952 108.744 76.4518 108.998 77.1484 108.998C77.6693 108.998 78.0957 108.852 78.4277 108.559C78.7598 108.259 78.9941 107.748 79.1309 107.025L81.8262 107.484C81.5462 108.721 81.0091 109.656 80.2148 110.287C79.4206 110.919 78.3561 111.234 77.0215 111.234C75.5046 111.234 74.2936 110.756 73.3887 109.799C72.4902 108.842 72.041 107.517 72.041 105.824C72.041 104.112 72.4935 102.781 73.3984 101.83C74.3034 100.873 75.5273 100.395 77.0703 100.395C78.3333 100.395 79.3359 100.668 80.0781 101.215C80.8268 101.755 81.3639 102.582 81.6895 103.695ZM86.5137 96.6836V101.947C87.3991 100.912 88.457 100.395 89.6875 100.395C90.319 100.395 90.8887 100.512 91.3965 100.746C91.9043 100.98 92.2852 101.28 92.5391 101.645C92.7995 102.009 92.9753 102.413 93.0664 102.855C93.1641 103.298 93.2129 103.985 93.2129 104.916V111H90.4688V105.521C90.4688 104.434 90.4167 103.744 90.3125 103.451C90.2083 103.158 90.0228 102.927 89.7559 102.758C89.4954 102.582 89.1667 102.494 88.7695 102.494C88.3138 102.494 87.9069 102.605 87.5488 102.826C87.1908 103.048 86.9271 103.383 86.7578 103.832C86.5951 104.275 86.5137 104.932 86.5137 105.805V111H83.7695V96.6836H86.5137ZM105.439 111H102.695V105.707C102.695 104.587 102.637 103.865 102.52 103.539C102.402 103.207 102.21 102.95 101.943 102.768C101.683 102.585 101.367 102.494 100.996 102.494C100.521 102.494 100.094 102.624 99.7168 102.885C99.3392 103.145 99.0788 103.49 98.9355 103.92C98.7988 104.35 98.7305 105.144 98.7305 106.303V111H95.9863V100.629H98.5352V102.152C99.4401 100.98 100.579 100.395 101.953 100.395C102.559 100.395 103.112 100.505 103.613 100.727C104.115 100.941 104.492 101.218 104.746 101.557C105.007 101.895 105.186 102.279 105.283 102.709C105.387 103.139 105.439 103.754 105.439 104.555V111ZM108.232 99.2227V96.6836H110.977V99.2227H108.232ZM108.232 111V100.629H110.977V111H108.232ZM122.842 103.695L120.137 104.184C120.046 103.643 119.837 103.236 119.512 102.963C119.193 102.689 118.776 102.553 118.262 102.553C117.578 102.553 117.031 102.79 116.621 103.266C116.217 103.734 116.016 104.522 116.016 105.629C116.016 106.859 116.221 107.729 116.631 108.236C117.048 108.744 117.604 108.998 118.301 108.998C118.822 108.998 119.248 108.852 119.58 108.559C119.912 108.259 120.146 107.748 120.283 107.025L122.979 107.484C122.699 108.721 122.161 109.656 121.367 110.287C120.573 110.919 119.508 111.234 118.174 111.234C116.657 111.234 115.446 110.756 114.541 109.799C113.643 108.842 113.193 107.517 113.193 105.824C113.193 104.112 113.646 102.781 114.551 101.83C115.456 100.873 116.68 100.395 118.223 100.395C119.486 100.395 120.488 100.668 121.23 101.215C121.979 101.755 122.516 102.582 122.842 103.695ZM126.982 103.793L124.492 103.344C124.772 102.341 125.254 101.599 125.938 101.117C126.621 100.635 127.637 100.395 128.984 100.395C130.208 100.395 131.12 100.541 131.719 100.834C132.318 101.12 132.738 101.488 132.979 101.938C133.226 102.38 133.35 103.197 133.35 104.389L133.32 107.592C133.32 108.503 133.363 109.177 133.447 109.613C133.538 110.043 133.704 110.505 133.945 111H131.23C131.159 110.818 131.071 110.548 130.967 110.189C130.921 110.027 130.889 109.919 130.869 109.867C130.4 110.323 129.899 110.665 129.365 110.893C128.831 111.12 128.262 111.234 127.656 111.234C126.589 111.234 125.745 110.945 125.127 110.365C124.515 109.786 124.209 109.053 124.209 108.168C124.209 107.582 124.349 107.061 124.629 106.605C124.909 106.143 125.299 105.792 125.801 105.551C126.309 105.303 127.038 105.089 127.988 104.906C129.271 104.665 130.16 104.441 130.654 104.232V103.959C130.654 103.432 130.524 103.057 130.264 102.836C130.003 102.608 129.512 102.494 128.789 102.494C128.301 102.494 127.92 102.592 127.646 102.787C127.373 102.976 127.152 103.311 126.982 103.793ZM130.654 106.02C130.303 106.137 129.746 106.277 128.984 106.439C128.223 106.602 127.725 106.762 127.49 106.918C127.132 107.172 126.953 107.494 126.953 107.885C126.953 108.269 127.096 108.601 127.383 108.881C127.669 109.161 128.034 109.301 128.477 109.301C128.971 109.301 129.443 109.138 129.893 108.812C130.225 108.565 130.443 108.262 130.547 107.904C130.618 107.67 130.654 107.224 130.654 106.566V106.02ZM136.064 111V96.6836H138.809V111H136.064ZM147.217 111V96.6836H157.832V99.1055H150.107V102.279H157.295V104.691H150.107V108.588H158.105V111H147.217ZM170.049 111H167.5V109.477C167.077 110.069 166.576 110.512 165.996 110.805C165.423 111.091 164.844 111.234 164.258 111.234C163.066 111.234 162.044 110.756 161.191 109.799C160.345 108.835 159.922 107.494 159.922 105.775C159.922 104.018 160.335 102.683 161.162 101.771C161.989 100.854 163.034 100.395 164.297 100.395C165.456 100.395 166.458 100.876 167.305 101.84V96.6836H170.049V111ZM162.725 105.59C162.725 106.697 162.878 107.497 163.184 107.992C163.626 108.708 164.245 109.066 165.039 109.066C165.671 109.066 166.208 108.799 166.65 108.266C167.093 107.725 167.314 106.921 167.314 105.854C167.314 104.662 167.1 103.806 166.67 103.285C166.24 102.758 165.69 102.494 165.02 102.494C164.368 102.494 163.822 102.755 163.379 103.275C162.943 103.79 162.725 104.561 162.725 105.59ZM179.59 111V109.447C179.212 110.001 178.714 110.437 178.096 110.756C177.484 111.075 176.836 111.234 176.152 111.234C175.456 111.234 174.831 111.081 174.277 110.775C173.724 110.469 173.324 110.04 173.076 109.486C172.829 108.933 172.705 108.168 172.705 107.191V100.629H175.449V105.395C175.449 106.853 175.498 107.748 175.596 108.08C175.7 108.406 175.885 108.666 176.152 108.861C176.419 109.05 176.758 109.145 177.168 109.145C177.637 109.145 178.057 109.018 178.428 108.764C178.799 108.503 179.053 108.184 179.189 107.807C179.326 107.423 179.395 106.488 179.395 105.004V100.629H182.139V111H179.59ZM194.033 103.695L191.328 104.184C191.237 103.643 191.029 103.236 190.703 102.963C190.384 102.689 189.967 102.553 189.453 102.553C188.77 102.553 188.223 102.79 187.812 103.266C187.409 103.734 187.207 104.522 187.207 105.629C187.207 106.859 187.412 107.729 187.822 108.236C188.239 108.744 188.796 108.998 189.492 108.998C190.013 108.998 190.439 108.852 190.771 108.559C191.104 108.259 191.338 107.748 191.475 107.025L194.17 107.484C193.89 108.721 193.353 109.656 192.559 110.287C191.764 110.919 190.7 111.234 189.365 111.234C187.848 111.234 186.637 110.756 185.732 109.799C184.834 108.842 184.385 107.517 184.385 105.824C184.385 104.112 184.837 102.781 185.742 101.83C186.647 100.873 187.871 100.395 189.414 100.395C190.677 100.395 191.68 100.668 192.422 101.215C193.171 101.755 193.708 102.582 194.033 103.695ZM198.174 103.793L195.684 103.344C195.964 102.341 196.445 101.599 197.129 101.117C197.812 100.635 198.828 100.395 200.176 100.395C201.4 100.395 202.311 100.541 202.91 100.834C203.509 101.12 203.929 101.488 204.17 101.938C204.417 102.38 204.541 103.197 204.541 104.389L204.512 107.592C204.512 108.503 204.554 109.177 204.639 109.613C204.73 110.043 204.896 110.505 205.137 111H202.422C202.35 110.818 202.262 110.548 202.158 110.189C202.113 110.027 202.08 109.919 202.061 109.867C201.592 110.323 201.09 110.665 200.557 110.893C200.023 111.12 199.453 111.234 198.848 111.234C197.78 111.234 196.937 110.945 196.318 110.365C195.706 109.786 195.4 109.053 195.4 108.168C195.4 107.582 195.54 107.061 195.82 106.605C196.1 106.143 196.491 105.792 196.992 105.551C197.5 105.303 198.229 105.089 199.18 104.906C200.462 104.665 201.351 104.441 201.846 104.232V103.959C201.846 103.432 201.715 103.057 201.455 102.836C201.195 102.608 200.703 102.494 199.98 102.494C199.492 102.494 199.111 102.592 198.838 102.787C198.564 102.976 198.343 103.311 198.174 103.793ZM201.846 106.02C201.494 106.137 200.938 106.277 200.176 106.439C199.414 106.602 198.916 106.762 198.682 106.918C198.324 107.172 198.145 107.494 198.145 107.885C198.145 108.269 198.288 108.601 198.574 108.881C198.861 109.161 199.225 109.301 199.668 109.301C200.163 109.301 200.635 109.138 201.084 108.812C201.416 108.565 201.634 108.262 201.738 107.904C201.81 107.67 201.846 107.224 201.846 106.566V106.02ZM212.012 100.629V102.816H210.137V106.996C210.137 107.842 210.153 108.337 210.186 108.48C210.225 108.617 210.306 108.731 210.43 108.822C210.56 108.913 210.716 108.959 210.898 108.959C211.152 108.959 211.52 108.871 212.002 108.695L212.236 110.824C211.598 111.098 210.876 111.234 210.068 111.234C209.574 111.234 209.128 111.153 208.73 110.99C208.333 110.821 208.04 110.606 207.852 110.346C207.669 110.079 207.542 109.721 207.471 109.271C207.412 108.952 207.383 108.308 207.383 107.338V102.816H206.123V100.629H207.383V98.5684L210.137 96.9668V100.629H212.012ZM213.281 105.668C213.281 104.757 213.506 103.874 213.955 103.021C214.404 102.169 215.039 101.518 215.859 101.068C216.686 100.619 217.607 100.395 218.623 100.395C220.192 100.395 221.478 100.906 222.48 101.928C223.483 102.943 223.984 104.229 223.984 105.785C223.984 107.354 223.477 108.656 222.461 109.691C221.452 110.72 220.179 111.234 218.643 111.234C217.692 111.234 216.784 111.02 215.918 110.59C215.059 110.16 214.404 109.532 213.955 108.705C213.506 107.872 213.281 106.859 213.281 105.668ZM216.094 105.814C216.094 106.843 216.338 107.631 216.826 108.178C217.314 108.725 217.917 108.998 218.633 108.998C219.349 108.998 219.948 108.725 220.43 108.178C220.918 107.631 221.162 106.837 221.162 105.795C221.162 104.779 220.918 103.998 220.43 103.451C219.948 102.904 219.349 102.631 218.633 102.631C217.917 102.631 217.314 102.904 216.826 103.451C216.338 103.998 216.094 104.786 216.094 105.814ZM228.77 111H226.025V100.629H228.574V102.104C229.01 101.407 229.401 100.948 229.746 100.727C230.098 100.505 230.495 100.395 230.938 100.395C231.562 100.395 232.165 100.567 232.744 100.912L231.895 103.305C231.432 103.005 231.003 102.855 230.605 102.855C230.221 102.855 229.896 102.963 229.629 103.178C229.362 103.386 229.15 103.767 228.994 104.32C228.844 104.874 228.77 106.033 228.77 107.797V111ZM232.969 108.041L235.723 107.621C235.84 108.155 236.077 108.562 236.436 108.842C236.794 109.115 237.295 109.252 237.939 109.252C238.649 109.252 239.183 109.122 239.541 108.861C239.782 108.679 239.902 108.435 239.902 108.129C239.902 107.921 239.837 107.748 239.707 107.611C239.57 107.481 239.264 107.361 238.789 107.25C236.576 106.762 235.173 106.316 234.58 105.912C233.76 105.352 233.35 104.574 233.35 103.578C233.35 102.68 233.704 101.924 234.414 101.312C235.124 100.701 236.224 100.395 237.715 100.395C239.134 100.395 240.189 100.626 240.879 101.088C241.569 101.55 242.044 102.234 242.305 103.139L239.717 103.617C239.606 103.214 239.395 102.904 239.082 102.689C238.776 102.475 238.337 102.367 237.764 102.367C237.041 102.367 236.523 102.468 236.211 102.67C236.003 102.813 235.898 102.999 235.898 103.227C235.898 103.422 235.99 103.588 236.172 103.725C236.419 103.907 237.272 104.164 238.73 104.496C240.195 104.828 241.217 105.235 241.797 105.717C242.37 106.205 242.656 106.885 242.656 107.758C242.656 108.708 242.259 109.525 241.465 110.209C240.671 110.893 239.495 111.234 237.939 111.234C236.527 111.234 235.407 110.948 234.58 110.375C233.76 109.802 233.223 109.024 232.969 108.041ZM259.814 105.736L262.617 106.625C262.188 108.188 261.471 109.35 260.469 110.111C259.473 110.867 258.206 111.244 256.67 111.244C254.769 111.244 253.206 110.596 251.982 109.301C250.758 107.999 250.146 106.221 250.146 103.969C250.146 101.586 250.762 99.737 251.992 98.4219C253.223 97.1003 254.84 96.4395 256.846 96.4395C258.597 96.4395 260.02 96.957 261.113 97.9922C261.764 98.6042 262.253 99.4831 262.578 100.629L259.717 101.312C259.548 100.57 259.193 99.9844 258.652 99.5547C258.118 99.125 257.467 98.9102 256.699 98.9102C255.638 98.9102 254.775 99.291 254.111 100.053C253.454 100.814 253.125 102.048 253.125 103.754C253.125 105.564 253.451 106.853 254.102 107.621C254.753 108.389 255.599 108.773 256.641 108.773C257.409 108.773 258.07 108.529 258.623 108.041C259.176 107.553 259.574 106.785 259.814 105.736ZM264.453 105.668C264.453 104.757 264.678 103.874 265.127 103.021C265.576 102.169 266.211 101.518 267.031 101.068C267.858 100.619 268.779 100.395 269.795 100.395C271.364 100.395 272.65 100.906 273.652 101.928C274.655 102.943 275.156 104.229 275.156 105.785C275.156 107.354 274.648 108.656 273.633 109.691C272.624 110.72 271.351 111.234 269.814 111.234C268.864 111.234 267.956 111.02 267.09 110.59C266.23 110.16 265.576 109.532 265.127 108.705C264.678 107.872 264.453 106.859 264.453 105.668ZM267.266 105.814C267.266 106.843 267.51 107.631 267.998 108.178C268.486 108.725 269.089 108.998 269.805 108.998C270.521 108.998 271.12 108.725 271.602 108.178C272.09 107.631 272.334 106.837 272.334 105.795C272.334 104.779 272.09 103.998 271.602 103.451C271.12 102.904 270.521 102.631 269.805 102.631C269.089 102.631 268.486 102.904 267.998 103.451C267.51 103.998 267.266 104.786 267.266 105.814ZM286.748 111H284.004V105.707C284.004 104.587 283.945 103.865 283.828 103.539C283.711 103.207 283.519 102.95 283.252 102.768C282.992 102.585 282.676 102.494 282.305 102.494C281.829 102.494 281.403 102.624 281.025 102.885C280.648 103.145 280.387 103.49 280.244 103.92C280.107 104.35 280.039 105.144 280.039 106.303V111H277.295V100.629H279.844V102.152C280.749 100.98 281.888 100.395 283.262 100.395C283.867 100.395 284.421 100.505 284.922 100.727C285.423 100.941 285.801 101.218 286.055 101.557C286.315 101.895 286.494 102.279 286.592 102.709C286.696 103.139 286.748 103.754 286.748 104.555V111ZM288.34 100.629H289.863V99.8477C289.863 98.9753 289.954 98.3242 290.137 97.8945C290.326 97.4648 290.667 97.1165 291.162 96.8496C291.663 96.5762 292.295 96.4395 293.057 96.4395C293.838 96.4395 294.603 96.5566 295.352 96.791L294.98 98.7051C294.544 98.6009 294.124 98.5488 293.721 98.5488C293.324 98.5488 293.037 98.6432 292.861 98.832C292.692 99.0143 292.607 99.3691 292.607 99.8965V100.629H294.658V102.787H292.607V111H289.863V102.787H288.34V100.629ZM302.207 107.699L304.941 108.158C304.59 109.161 304.033 109.926 303.271 110.453C302.516 110.974 301.569 111.234 300.43 111.234C298.626 111.234 297.292 110.645 296.426 109.467C295.742 108.523 295.4 107.331 295.4 105.893C295.4 104.174 295.85 102.829 296.748 101.859C297.646 100.883 298.783 100.395 300.156 100.395C301.699 100.395 302.917 100.906 303.809 101.928C304.701 102.943 305.127 104.503 305.088 106.605H298.213C298.232 107.419 298.454 108.054 298.877 108.51C299.3 108.959 299.827 109.184 300.459 109.184C300.889 109.184 301.25 109.066 301.543 108.832C301.836 108.598 302.057 108.22 302.207 107.699ZM302.363 104.926C302.344 104.132 302.139 103.529 301.748 103.119C301.357 102.702 300.882 102.494 300.322 102.494C299.723 102.494 299.229 102.712 298.838 103.148C298.447 103.585 298.255 104.177 298.262 104.926H302.363ZM309.961 111H307.217V100.629H309.766V102.104C310.202 101.407 310.592 100.948 310.938 100.727C311.289 100.505 311.686 100.395 312.129 100.395C312.754 100.395 313.356 100.567 313.936 100.912L313.086 103.305C312.624 103.005 312.194 102.855 311.797 102.855C311.413 102.855 311.087 102.963 310.82 103.178C310.553 103.386 310.342 103.767 310.186 104.32C310.036 104.874 309.961 106.033 309.961 107.797V111ZM321.133 107.699L323.867 108.158C323.516 109.161 322.959 109.926 322.197 110.453C321.442 110.974 320.495 111.234 319.355 111.234C317.552 111.234 316.217 110.645 315.352 109.467C314.668 108.523 314.326 107.331 314.326 105.893C314.326 104.174 314.775 102.829 315.674 101.859C316.572 100.883 317.708 100.395 319.082 100.395C320.625 100.395 321.842 100.906 322.734 101.928C323.626 102.943 324.053 104.503 324.014 106.605H317.139C317.158 107.419 317.38 108.054 317.803 108.51C318.226 108.959 318.753 109.184 319.385 109.184C319.814 109.184 320.176 109.066 320.469 108.832C320.762 108.598 320.983 108.22 321.133 107.699ZM321.289 104.926C321.27 104.132 321.064 103.529 320.674 103.119C320.283 102.702 319.808 102.494 319.248 102.494C318.649 102.494 318.154 102.712 317.764 103.148C317.373 103.585 317.181 104.177 317.188 104.926H321.289ZM335.693 111H332.949V105.707C332.949 104.587 332.891 103.865 332.773 103.539C332.656 103.207 332.464 102.95 332.197 102.768C331.937 102.585 331.621 102.494 331.25 102.494C330.775 102.494 330.348 102.624 329.971 102.885C329.593 103.145 329.333 103.49 329.189 103.92C329.053 104.35 328.984 105.144 328.984 106.303V111H326.24V100.629H328.789V102.152C329.694 100.98 330.833 100.395 332.207 100.395C332.812 100.395 333.366 100.505 333.867 100.727C334.368 100.941 334.746 101.218 335 101.557C335.26 101.895 335.439 102.279 335.537 102.709C335.641 103.139 335.693 103.754 335.693 104.555V111ZM347.529 103.695L344.824 104.184C344.733 103.643 344.525 103.236 344.199 102.963C343.88 102.689 343.464 102.553 342.949 102.553C342.266 102.553 341.719 102.79 341.309 103.266C340.905 103.734 340.703 104.522 340.703 105.629C340.703 106.859 340.908 107.729 341.318 108.236C341.735 108.744 342.292 108.998 342.988 108.998C343.509 108.998 343.936 108.852 344.268 108.559C344.6 108.259 344.834 107.748 344.971 107.025L347.666 107.484C347.386 108.721 346.849 109.656 346.055 110.287C345.26 110.919 344.196 111.234 342.861 111.234C341.344 111.234 340.133 110.756 339.229 109.799C338.33 108.842 337.881 107.517 337.881 105.824C337.881 104.112 338.333 102.781 339.238 101.83C340.143 100.873 341.367 100.395 342.91 100.395C344.173 100.395 345.176 100.668 345.918 101.215C346.667 101.755 347.204 102.582 347.529 103.695ZM355.625 107.699L358.359 108.158C358.008 109.161 357.451 109.926 356.689 110.453C355.934 110.974 354.987 111.234 353.848 111.234C352.044 111.234 350.71 110.645 349.844 109.467C349.16 108.523 348.818 107.331 348.818 105.893C348.818 104.174 349.268 102.829 350.166 101.859C351.064 100.883 352.201 100.395 353.574 100.395C355.117 100.395 356.335 100.906 357.227 101.928C358.118 102.943 358.545 104.503 358.506 106.605H351.631C351.65 107.419 351.872 108.054 352.295 108.51C352.718 108.959 353.245 109.184 353.877 109.184C354.307 109.184 354.668 109.066 354.961 108.832C355.254 108.598 355.475 108.22 355.625 107.699ZM355.781 104.926C355.762 104.132 355.557 103.529 355.166 103.119C354.775 102.702 354.3 102.494 353.74 102.494C353.141 102.494 352.646 102.712 352.256 103.148C351.865 103.585 351.673 104.177 351.68 104.926H355.781Z" fill="white"/>
<rect width="93.5" height="83.5" transform="translate(2)" fill="#A0322B"/>
<path d="M68.1176 42.759L94 0V33.8313L68.1176 78H47.8824L58.2353 59.2048H46L55.4118 42.759H68.1176Z" fill="#FEFEFC"/>
<path d="M26.9793 43.3263L51.8345 1H72L26.9793 78H6.81379L17.131 59.0958H4V43.3263H26.9793Z" fill="#FEFEFC"/>
<rect width="258" height="84" transform="translate(101)" fill="#1C1B17"/>
<path d="M114.203 11.2812H178.75V28.25H157.094V80H135.859V28.25H114.203V11.2812ZM198.919 11.2812H255.826V25.9531H220.201V36.875H253.247V50.8906H220.201V64.4375H256.857V80H198.919V11.2812ZM324.651 51.9219L343.261 57.5469C342.011 62.7656 340.042 67.125 337.354 70.625C334.667 74.125 331.323 76.7656 327.323 78.5469C323.354 80.3281 318.292 81.2188 312.136 81.2188C304.667 81.2188 298.557 80.1406 293.807 77.9844C289.089 75.7969 285.011 71.9688 281.573 66.5C278.136 61.0312 276.417 54.0312 276.417 45.5C276.417 34.125 279.432 25.3906 285.464 19.2969C291.526 13.1719 300.089 10.1094 311.151 10.1094C319.807 10.1094 326.604 11.8594 331.542 15.3594C336.511 18.8594 340.198 24.2344 342.604 31.4844L323.854 35.6562C323.198 33.5625 322.511 32.0312 321.792 31.0625C320.604 29.4375 319.151 28.1875 317.432 27.3125C315.714 26.4375 313.792 26 311.667 26C306.854 26 303.167 27.9375 300.604 31.8125C298.667 34.6875 297.698 39.2031 297.698 45.3594C297.698 52.9844 298.854 58.2188 301.167 61.0625C303.479 63.875 306.729 65.2812 310.917 65.2812C314.979 65.2812 318.042 64.1406 320.104 61.8594C322.198 59.5781 323.714 56.2656 324.651 51.9219Z" fill="white"/>
</svg>
