<svg width="363" height="116" viewBox="0 0 363 116" fill="none" xmlns="http://www.w3.org/2000/svg">
<path d="M1.46484 111V96.6836H4.35547V102.318H10.0195V96.6836H12.9102V111H10.0195V104.74H4.35547V111H1.46484ZM17.9395 103.793L15.4492 103.344C15.7292 102.341 16.2109 101.599 16.8945 101.117C17.5781 100.635 18.5938 100.395 19.9414 100.395C21.1654 100.395 22.0768 100.541 22.6758 100.834C23.2747 101.12 23.6947 101.488 23.9355 101.938C24.1829 102.38 24.3066 103.197 24.3066 104.389L24.2773 107.592C24.2773 108.503 24.3197 109.177 24.4043 109.613C24.4954 110.043 24.6615 110.505 24.9023 111H22.1875C22.1159 110.818 22.028 110.548 21.9238 110.189C21.8783 110.027 21.8457 109.919 21.8262 109.867C21.3574 110.323 20.8561 110.665 20.3223 110.893C19.7884 111.12 19.2188 111.234 18.6133 111.234C17.5456 111.234 16.7025 110.945 16.084 110.365C15.472 109.786 15.166 109.053 15.166 108.168C15.166 107.582 15.306 107.061 15.5859 106.605C15.8659 106.143 16.2565 105.792 16.7578 105.551C17.2656 105.303 17.9948 105.089 18.9453 104.906C20.2279 104.665 21.1165 104.441 21.6113 104.232V103.959C21.6113 103.432 21.4811 103.057 21.2207 102.836C20.9603 102.608 20.4688 102.494 19.7461 102.494C19.2578 102.494 18.877 102.592 18.6035 102.787C18.3301 102.976 18.1087 103.311 17.9395 103.793ZM21.6113 106.02C21.2598 106.137 20.7031 106.277 19.9414 106.439C19.1797 106.602 18.6816 106.762 18.4473 106.918C18.0892 107.172 17.9102 107.494 17.9102 107.885C17.9102 108.269 18.0534 108.601 18.3398 108.881C18.6263 109.161 18.9909 109.301 19.4336 109.301C19.9284 109.301 20.4004 109.138 20.8496 108.812C21.1816 108.565 21.3997 108.262 21.5039 107.904C21.5755 107.67 21.6113 107.224 21.6113 106.566V106.02ZM29.0723 103.793L26.582 103.344C26.862 102.341 27.3438 101.599 28.0273 101.117C28.7109 100.635 29.7266 100.395 31.0742 100.395C32.2982 100.395 33.2096 100.541 33.8086 100.834C34.4076 101.12 34.8275 101.488 35.0684 101.938C35.3158 102.38 35.4395 103.197 35.4395 104.389L35.4102 107.592C35.4102 108.503 35.4525 109.177 35.5371 109.613C35.6283 110.043 35.7943 110.505 36.0352 111H33.3203C33.2487 110.818 33.1608 110.548 33.0566 110.189C33.0111 110.027 32.9785 109.919 32.959 109.867C32.4902 110.323 31.9889 110.665 31.4551 110.893C30.9212 111.12 30.3516 111.234 29.7461 111.234C28.6784 111.234 27.8353 110.945 27.2168 110.365C26.6048 109.786 26.2988 109.053 26.2988 108.168C26.2988 107.582 26.4388 107.061 26.7188 106.605C26.9987 106.143 27.3893 105.792 27.8906 105.551C28.3984 105.303 29.1276 105.089 30.0781 104.906C31.3607 104.665 32.2493 104.441 32.7441 104.232V103.959C32.7441 103.432 32.6139 103.057 32.3535 102.836C32.0931 102.608 31.6016 102.494 30.8789 102.494C30.3906 102.494 30.0098 102.592 29.7363 102.787C29.4629 102.976 29.2415 103.311 29.0723 103.793ZM32.7441 106.02C32.3926 106.137 31.8359 106.277 31.0742 106.439C30.3125 106.602 29.8145 106.762 29.5801 106.918C29.222 107.172 29.043 107.494 29.043 107.885C29.043 108.269 29.1862 108.601 29.4727 108.881C29.7591 109.161 30.1237 109.301 30.5664 109.301C31.0612 109.301 31.5332 109.138 31.9824 108.812C32.3145 108.565 32.5326 108.262 32.6367 107.904C32.7083 107.67 32.7441 107.224 32.7441 106.566V106.02ZM37.1875 108.041L39.9414 107.621C40.0586 108.155 40.2962 108.562 40.6543 108.842C41.0124 109.115 41.5137 109.252 42.1582 109.252C42.8678 109.252 43.4017 109.122 43.7598 108.861C44.0007 108.679 44.1211 108.435 44.1211 108.129C44.1211 107.921 44.056 107.748 43.9258 107.611C43.7891 107.481 43.4831 107.361 43.0078 107.25C40.7943 106.762 39.3913 106.316 38.7988 105.912C37.9785 105.352 37.5684 104.574 37.5684 103.578C37.5684 102.68 37.9232 101.924 38.6328 101.312C39.3424 100.701 40.4427 100.395 41.9336 100.395C43.3529 100.395 44.4076 100.626 45.0977 101.088C45.7878 101.55 46.263 102.234 46.5234 103.139L43.9355 103.617C43.8249 103.214 43.6133 102.904 43.3008 102.689C42.9948 102.475 42.5553 102.367 41.9824 102.367C41.2598 102.367 40.7422 102.468 40.4297 102.67C40.2214 102.813 40.1172 102.999 40.1172 103.227C40.1172 103.422 40.2083 103.588 40.3906 103.725C40.638 103.907 41.4909 104.164 42.9492 104.496C44.4141 104.828 45.4362 105.235 46.0156 105.717C46.5885 106.205 46.875 106.885 46.875 107.758C46.875 108.708 46.4779 109.525 45.6836 110.209C44.8893 110.893 43.7142 111.234 42.1582 111.234C40.7454 111.234 39.6257 110.948 38.7988 110.375C37.9785 109.802 37.4414 109.024 37.1875 108.041ZM58.0957 111V99.1055H53.8477V96.6836H65.2246V99.1055H60.9863V111H58.0957ZM71.6016 107.699L74.3359 108.158C73.9844 109.161 73.4277 109.926 72.666 110.453C71.9108 110.974 70.9635 111.234 69.8242 111.234C68.0208 111.234 66.6862 110.645 65.8203 109.467C65.1367 108.523 64.7949 107.331 64.7949 105.893C64.7949 104.174 65.2441 102.829 66.1426 101.859C67.041 100.883 68.1771 100.395 69.5508 100.395C71.0938 100.395 72.3112 100.906 73.2031 101.928C74.0951 102.943 74.5215 104.503 74.4824 106.605H67.6074C67.627 107.419 67.8483 108.054 68.2715 108.51C68.6947 108.959 69.222 109.184 69.8535 109.184C70.2832 109.184 70.6445 109.066 70.9375 108.832C71.2305 108.598 71.4518 108.22 71.6016 107.699ZM71.7578 104.926C71.7383 104.132 71.5332 103.529 71.1426 103.119C70.752 102.702 70.2767 102.494 69.7168 102.494C69.1178 102.494 68.623 102.712 68.2324 103.148C67.8418 103.585 67.6497 104.177 67.6562 104.926H71.7578ZM85.7715 103.695L83.0664 104.184C82.9753 103.643 82.7669 103.236 82.4414 102.963C82.1224 102.689 81.7057 102.553 81.1914 102.553C80.5078 102.553 79.9609 102.79 79.5508 103.266C79.1471 103.734 78.9453 104.522 78.9453 105.629C78.9453 106.859 79.1504 107.729 79.5605 108.236C79.9772 108.744 80.5339 108.998 81.2305 108.998C81.7513 108.998 82.1777 108.852 82.5098 108.559C82.8418 108.259 83.0762 107.748 83.2129 107.025L85.9082 107.484C85.6283 108.721 85.0911 109.656 84.2969 110.287C83.5026 110.919 82.4382 111.234 81.1035 111.234C79.5866 111.234 78.3757 110.756 77.4707 109.799C76.5723 108.842 76.123 107.517 76.123 105.824C76.123 104.112 76.5755 102.781 77.4805 101.83C78.3854 100.873 79.6094 100.395 81.1523 100.395C82.4154 100.395 83.418 100.668 84.1602 101.215C84.9089 101.755 85.446 102.582 85.7715 103.695ZM90.5957 96.6836V101.947C91.4811 100.912 92.5391 100.395 93.7695 100.395C94.401 100.395 94.9707 100.512 95.4785 100.746C95.9863 100.98 96.3672 101.28 96.6211 101.645C96.8815 102.009 97.0573 102.413 97.1484 102.855C97.2461 103.298 97.2949 103.985 97.2949 104.916V111H94.5508V105.521C94.5508 104.434 94.4987 103.744 94.3945 103.451C94.2904 103.158 94.1048 102.927 93.8379 102.758C93.5775 102.582 93.2487 102.494 92.8516 102.494C92.3958 102.494 91.9889 102.605 91.6309 102.826C91.2728 103.048 91.0091 103.383 90.8398 103.832C90.6771 104.275 90.5957 104.932 90.5957 105.805V111H87.8516V96.6836H90.5957ZM109.521 111H106.777V105.707C106.777 104.587 106.719 103.865 106.602 103.539C106.484 103.207 106.292 102.95 106.025 102.768C105.765 102.585 105.449 102.494 105.078 102.494C104.603 102.494 104.176 102.624 103.799 102.885C103.421 103.145 103.161 103.49 103.018 103.92C102.881 104.35 102.812 105.144 102.812 106.303V111H100.068V100.629H102.617V102.152C103.522 100.98 104.661 100.395 106.035 100.395C106.641 100.395 107.194 100.505 107.695 100.727C108.197 100.941 108.574 101.218 108.828 101.557C109.089 101.895 109.268 102.279 109.365 102.709C109.469 103.139 109.521 103.754 109.521 104.555V111ZM112.314 99.2227V96.6836H115.059V99.2227H112.314ZM112.314 111V100.629H115.059V111H112.314ZM126.924 103.695L124.219 104.184C124.128 103.643 123.919 103.236 123.594 102.963C123.275 102.689 122.858 102.553 122.344 102.553C121.66 102.553 121.113 102.79 120.703 103.266C120.299 103.734 120.098 104.522 120.098 105.629C120.098 106.859 120.303 107.729 120.713 108.236C121.13 108.744 121.686 108.998 122.383 108.998C122.904 108.998 123.33 108.852 123.662 108.559C123.994 108.259 124.229 107.748 124.365 107.025L127.061 107.484C126.781 108.721 126.243 109.656 125.449 110.287C124.655 110.919 123.59 111.234 122.256 111.234C120.739 111.234 119.528 110.756 118.623 109.799C117.725 108.842 117.275 107.517 117.275 105.824C117.275 104.112 117.728 102.781 118.633 101.83C119.538 100.873 120.762 100.395 122.305 100.395C123.568 100.395 124.57 100.668 125.312 101.215C126.061 101.755 126.598 102.582 126.924 103.695ZM131.064 103.793L128.574 103.344C128.854 102.341 129.336 101.599 130.02 101.117C130.703 100.635 131.719 100.395 133.066 100.395C134.29 100.395 135.202 100.541 135.801 100.834C136.4 101.12 136.82 101.488 137.061 101.938C137.308 102.38 137.432 103.197 137.432 104.389L137.402 107.592C137.402 108.503 137.445 109.177 137.529 109.613C137.62 110.043 137.786 110.505 138.027 111H135.312C135.241 110.818 135.153 110.548 135.049 110.189C135.003 110.027 134.971 109.919 134.951 109.867C134.482 110.323 133.981 110.665 133.447 110.893C132.913 111.12 132.344 111.234 131.738 111.234C130.671 111.234 129.827 110.945 129.209 110.365C128.597 109.786 128.291 109.053 128.291 108.168C128.291 107.582 128.431 107.061 128.711 106.605C128.991 106.143 129.382 105.792 129.883 105.551C130.391 105.303 131.12 105.089 132.07 104.906C133.353 104.665 134.242 104.441 134.736 104.232V103.959C134.736 103.432 134.606 103.057 134.346 102.836C134.085 102.608 133.594 102.494 132.871 102.494C132.383 102.494 132.002 102.592 131.729 102.787C131.455 102.976 131.234 103.311 131.064 103.793ZM134.736 106.02C134.385 106.137 133.828 106.277 133.066 106.439C132.305 106.602 131.807 106.762 131.572 106.918C131.214 107.172 131.035 107.494 131.035 107.885C131.035 108.269 131.178 108.601 131.465 108.881C131.751 109.161 132.116 109.301 132.559 109.301C133.053 109.301 133.525 109.138 133.975 108.812C134.307 108.565 134.525 108.262 134.629 107.904C134.701 107.67 134.736 107.224 134.736 106.566V106.02ZM140.146 111V96.6836H142.891V111H140.146ZM151.299 111V96.6836H161.914V99.1055H154.189V102.279H161.377V104.691H154.189V108.588H162.188V111H151.299ZM174.131 111H171.582V109.477C171.159 110.069 170.658 110.512 170.078 110.805C169.505 111.091 168.926 111.234 168.34 111.234C167.148 111.234 166.126 110.756 165.273 109.799C164.427 108.835 164.004 107.494 164.004 105.775C164.004 104.018 164.417 102.683 165.244 101.771C166.071 100.854 167.116 100.395 168.379 100.395C169.538 100.395 170.54 100.876 171.387 101.84V96.6836H174.131V111ZM166.807 105.59C166.807 106.697 166.96 107.497 167.266 107.992C167.708 108.708 168.327 109.066 169.121 109.066C169.753 109.066 170.29 108.799 170.732 108.266C171.175 107.725 171.396 106.921 171.396 105.854C171.396 104.662 171.182 103.806 170.752 103.285C170.322 102.758 169.772 102.494 169.102 102.494C168.451 102.494 167.904 102.755 167.461 103.275C167.025 103.79 166.807 104.561 166.807 105.59ZM183.672 111V109.447C183.294 110.001 182.796 110.437 182.178 110.756C181.566 111.075 180.918 111.234 180.234 111.234C179.538 111.234 178.913 111.081 178.359 110.775C177.806 110.469 177.406 110.04 177.158 109.486C176.911 108.933 176.787 108.168 176.787 107.191V100.629H179.531V105.395C179.531 106.853 179.58 107.748 179.678 108.08C179.782 108.406 179.967 108.666 180.234 108.861C180.501 109.05 180.84 109.145 181.25 109.145C181.719 109.145 182.139 109.018 182.51 108.764C182.881 108.503 183.135 108.184 183.271 107.807C183.408 107.423 183.477 106.488 183.477 105.004V100.629H186.221V111H183.672ZM198.115 103.695L195.41 104.184C195.319 103.643 195.111 103.236 194.785 102.963C194.466 102.689 194.049 102.553 193.535 102.553C192.852 102.553 192.305 102.79 191.895 103.266C191.491 103.734 191.289 104.522 191.289 105.629C191.289 106.859 191.494 107.729 191.904 108.236C192.321 108.744 192.878 108.998 193.574 108.998C194.095 108.998 194.521 108.852 194.854 108.559C195.186 108.259 195.42 107.748 195.557 107.025L198.252 107.484C197.972 108.721 197.435 109.656 196.641 110.287C195.846 110.919 194.782 111.234 193.447 111.234C191.93 111.234 190.719 110.756 189.814 109.799C188.916 108.842 188.467 107.517 188.467 105.824C188.467 104.112 188.919 102.781 189.824 101.83C190.729 100.873 191.953 100.395 193.496 100.395C194.759 100.395 195.762 100.668 196.504 101.215C197.253 101.755 197.79 102.582 198.115 103.695ZM202.256 103.793L199.766 103.344C200.046 102.341 200.527 101.599 201.211 101.117C201.895 100.635 202.91 100.395 204.258 100.395C205.482 100.395 206.393 100.541 206.992 100.834C207.591 101.12 208.011 101.488 208.252 101.938C208.499 102.38 208.623 103.197 208.623 104.389L208.594 107.592C208.594 108.503 208.636 109.177 208.721 109.613C208.812 110.043 208.978 110.505 209.219 111H206.504C206.432 110.818 206.344 110.548 206.24 110.189C206.195 110.027 206.162 109.919 206.143 109.867C205.674 110.323 205.173 110.665 204.639 110.893C204.105 111.12 203.535 111.234 202.93 111.234C201.862 111.234 201.019 110.945 200.4 110.365C199.788 109.786 199.482 109.053 199.482 108.168C199.482 107.582 199.622 107.061 199.902 106.605C200.182 106.143 200.573 105.792 201.074 105.551C201.582 105.303 202.311 105.089 203.262 104.906C204.544 104.665 205.433 104.441 205.928 104.232V103.959C205.928 103.432 205.798 103.057 205.537 102.836C205.277 102.608 204.785 102.494 204.062 102.494C203.574 102.494 203.193 102.592 202.92 102.787C202.646 102.976 202.425 103.311 202.256 103.793ZM205.928 106.02C205.576 106.137 205.02 106.277 204.258 106.439C203.496 106.602 202.998 106.762 202.764 106.918C202.406 107.172 202.227 107.494 202.227 107.885C202.227 108.269 202.37 108.601 202.656 108.881C202.943 109.161 203.307 109.301 203.75 109.301C204.245 109.301 204.717 109.138 205.166 108.812C205.498 108.565 205.716 108.262 205.82 107.904C205.892 107.67 205.928 107.224 205.928 106.566V106.02ZM216.094 100.629V102.816H214.219V106.996C214.219 107.842 214.235 108.337 214.268 108.48C214.307 108.617 214.388 108.731 214.512 108.822C214.642 108.913 214.798 108.959 214.98 108.959C215.234 108.959 215.602 108.871 216.084 108.695L216.318 110.824C215.68 111.098 214.958 111.234 214.15 111.234C213.656 111.234 213.21 111.153 212.812 110.99C212.415 110.821 212.122 110.606 211.934 110.346C211.751 110.079 211.624 109.721 211.553 109.271C211.494 108.952 211.465 108.308 211.465 107.338V102.816H210.205V100.629H211.465V98.5684L214.219 96.9668V100.629H216.094ZM217.363 105.668C217.363 104.757 217.588 103.874 218.037 103.021C218.486 102.169 219.121 101.518 219.941 101.068C220.768 100.619 221.689 100.395 222.705 100.395C224.274 100.395 225.56 100.906 226.562 101.928C227.565 102.943 228.066 104.229 228.066 105.785C228.066 107.354 227.559 108.656 226.543 109.691C225.534 110.72 224.261 111.234 222.725 111.234C221.774 111.234 220.866 111.02 220 110.59C219.141 110.16 218.486 109.532 218.037 108.705C217.588 107.872 217.363 106.859 217.363 105.668ZM220.176 105.814C220.176 106.843 220.42 107.631 220.908 108.178C221.396 108.725 221.999 108.998 222.715 108.998C223.431 108.998 224.03 108.725 224.512 108.178C225 107.631 225.244 106.837 225.244 105.795C225.244 104.779 225 103.998 224.512 103.451C224.03 102.904 223.431 102.631 222.715 102.631C221.999 102.631 221.396 102.904 220.908 103.451C220.42 103.998 220.176 104.786 220.176 105.814ZM232.852 111H230.107V100.629H232.656V102.104C233.092 101.407 233.483 100.948 233.828 100.727C234.18 100.505 234.577 100.395 235.02 100.395C235.645 100.395 236.247 100.567 236.826 100.912L235.977 103.305C235.514 103.005 235.085 102.855 234.688 102.855C234.303 102.855 233.978 102.963 233.711 103.178C233.444 103.386 233.232 103.767 233.076 104.32C232.926 104.874 232.852 106.033 232.852 107.797V111ZM237.051 108.041L239.805 107.621C239.922 108.155 240.16 108.562 240.518 108.842C240.876 109.115 241.377 109.252 242.021 109.252C242.731 109.252 243.265 109.122 243.623 108.861C243.864 108.679 243.984 108.435 243.984 108.129C243.984 107.921 243.919 107.748 243.789 107.611C243.652 107.481 243.346 107.361 242.871 107.25C240.658 106.762 239.255 106.316 238.662 105.912C237.842 105.352 237.432 104.574 237.432 103.578C237.432 102.68 237.786 101.924 238.496 101.312C239.206 100.701 240.306 100.395 241.797 100.395C243.216 100.395 244.271 100.626 244.961 101.088C245.651 101.55 246.126 102.234 246.387 103.139L243.799 103.617C243.688 103.214 243.477 102.904 243.164 102.689C242.858 102.475 242.419 102.367 241.846 102.367C241.123 102.367 240.605 102.468 240.293 102.67C240.085 102.813 239.98 102.999 239.98 103.227C239.98 103.422 240.072 103.588 240.254 103.725C240.501 103.907 241.354 104.164 242.812 104.496C244.277 104.828 245.299 105.235 245.879 105.717C246.452 106.205 246.738 106.885 246.738 107.758C246.738 108.708 246.341 109.525 245.547 110.209C244.753 110.893 243.577 111.234 242.021 111.234C240.609 111.234 239.489 110.948 238.662 110.375C237.842 109.802 237.305 109.024 237.051 108.041ZM263.896 105.736L266.699 106.625C266.27 108.188 265.553 109.35 264.551 110.111C263.555 110.867 262.288 111.244 260.752 111.244C258.851 111.244 257.288 110.596 256.064 109.301C254.84 107.999 254.229 106.221 254.229 103.969C254.229 101.586 254.844 99.737 256.074 98.4219C257.305 97.1003 258.923 96.4395 260.928 96.4395C262.679 96.4395 264.102 96.957 265.195 97.9922C265.846 98.6042 266.335 99.4831 266.66 100.629L263.799 101.312C263.63 100.57 263.275 99.9844 262.734 99.5547C262.201 99.125 261.549 98.9102 260.781 98.9102C259.72 98.9102 258.857 99.291 258.193 100.053C257.536 100.814 257.207 102.048 257.207 103.754C257.207 105.564 257.533 106.853 258.184 107.621C258.835 108.389 259.681 108.773 260.723 108.773C261.491 108.773 262.152 108.529 262.705 108.041C263.258 107.553 263.656 106.785 263.896 105.736ZM268.535 105.668C268.535 104.757 268.76 103.874 269.209 103.021C269.658 102.169 270.293 101.518 271.113 101.068C271.94 100.619 272.861 100.395 273.877 100.395C275.446 100.395 276.732 100.906 277.734 101.928C278.737 102.943 279.238 104.229 279.238 105.785C279.238 107.354 278.73 108.656 277.715 109.691C276.706 110.72 275.433 111.234 273.896 111.234C272.946 111.234 272.038 111.02 271.172 110.59C270.312 110.16 269.658 109.532 269.209 108.705C268.76 107.872 268.535 106.859 268.535 105.668ZM271.348 105.814C271.348 106.843 271.592 107.631 272.08 108.178C272.568 108.725 273.171 108.998 273.887 108.998C274.603 108.998 275.202 108.725 275.684 108.178C276.172 107.631 276.416 106.837 276.416 105.795C276.416 104.779 276.172 103.998 275.684 103.451C275.202 102.904 274.603 102.631 273.887 102.631C273.171 102.631 272.568 102.904 272.08 103.451C271.592 103.998 271.348 104.786 271.348 105.814ZM290.83 111H288.086V105.707C288.086 104.587 288.027 103.865 287.91 103.539C287.793 103.207 287.601 102.95 287.334 102.768C287.074 102.585 286.758 102.494 286.387 102.494C285.911 102.494 285.485 102.624 285.107 102.885C284.73 103.145 284.469 103.49 284.326 103.92C284.189 104.35 284.121 105.144 284.121 106.303V111H281.377V100.629H283.926V102.152C284.831 100.98 285.97 100.395 287.344 100.395C287.949 100.395 288.503 100.505 289.004 100.727C289.505 100.941 289.883 101.218 290.137 101.557C290.397 101.895 290.576 102.279 290.674 102.709C290.778 103.139 290.83 103.754 290.83 104.555V111ZM292.422 100.629H293.945V99.8477C293.945 98.9753 294.036 98.3242 294.219 97.8945C294.408 97.4648 294.749 97.1165 295.244 96.8496C295.745 96.5762 296.377 96.4395 297.139 96.4395C297.92 96.4395 298.685 96.5566 299.434 96.791L299.062 98.7051C298.626 98.6009 298.206 98.5488 297.803 98.5488C297.406 98.5488 297.119 98.6432 296.943 98.832C296.774 99.0143 296.689 99.3691 296.689 99.8965V100.629H298.74V102.787H296.689V111H293.945V102.787H292.422V100.629ZM306.289 107.699L309.023 108.158C308.672 109.161 308.115 109.926 307.354 110.453C306.598 110.974 305.651 111.234 304.512 111.234C302.708 111.234 301.374 110.645 300.508 109.467C299.824 108.523 299.482 107.331 299.482 105.893C299.482 104.174 299.932 102.829 300.83 101.859C301.729 100.883 302.865 100.395 304.238 100.395C305.781 100.395 306.999 100.906 307.891 101.928C308.783 102.943 309.209 104.503 309.17 106.605H302.295C302.314 107.419 302.536 108.054 302.959 108.51C303.382 108.959 303.91 109.184 304.541 109.184C304.971 109.184 305.332 109.066 305.625 108.832C305.918 108.598 306.139 108.22 306.289 107.699ZM306.445 104.926C306.426 104.132 306.221 103.529 305.83 103.119C305.439 102.702 304.964 102.494 304.404 102.494C303.805 102.494 303.311 102.712 302.92 103.148C302.529 103.585 302.337 104.177 302.344 104.926H306.445ZM314.043 111H311.299V100.629H313.848V102.104C314.284 101.407 314.674 100.948 315.02 100.727C315.371 100.505 315.768 100.395 316.211 100.395C316.836 100.395 317.438 100.567 318.018 100.912L317.168 103.305C316.706 103.005 316.276 102.855 315.879 102.855C315.495 102.855 315.169 102.963 314.902 103.178C314.635 103.386 314.424 103.767 314.268 104.32C314.118 104.874 314.043 106.033 314.043 107.797V111ZM325.215 107.699L327.949 108.158C327.598 109.161 327.041 109.926 326.279 110.453C325.524 110.974 324.577 111.234 323.438 111.234C321.634 111.234 320.299 110.645 319.434 109.467C318.75 108.523 318.408 107.331 318.408 105.893C318.408 104.174 318.857 102.829 319.756 101.859C320.654 100.883 321.79 100.395 323.164 100.395C324.707 100.395 325.924 100.906 326.816 101.928C327.708 102.943 328.135 104.503 328.096 106.605H321.221C321.24 107.419 321.462 108.054 321.885 108.51C322.308 108.959 322.835 109.184 323.467 109.184C323.896 109.184 324.258 109.066 324.551 108.832C324.844 108.598 325.065 108.22 325.215 107.699ZM325.371 104.926C325.352 104.132 325.146 103.529 324.756 103.119C324.365 102.702 323.89 102.494 323.33 102.494C322.731 102.494 322.236 102.712 321.846 103.148C321.455 103.585 321.263 104.177 321.27 104.926H325.371ZM339.775 111H337.031V105.707C337.031 104.587 336.973 103.865 336.855 103.539C336.738 103.207 336.546 102.95 336.279 102.768C336.019 102.585 335.703 102.494 335.332 102.494C334.857 102.494 334.43 102.624 334.053 102.885C333.675 103.145 333.415 103.49 333.271 103.92C333.135 104.35 333.066 105.144 333.066 106.303V111H330.322V100.629H332.871V102.152C333.776 100.98 334.915 100.395 336.289 100.395C336.895 100.395 337.448 100.505 337.949 100.727C338.451 100.941 338.828 101.218 339.082 101.557C339.342 101.895 339.521 102.279 339.619 102.709C339.723 103.139 339.775 103.754 339.775 104.555V111ZM351.611 103.695L348.906 104.184C348.815 103.643 348.607 103.236 348.281 102.963C347.962 102.689 347.546 102.553 347.031 102.553C346.348 102.553 345.801 102.79 345.391 103.266C344.987 103.734 344.785 104.522 344.785 105.629C344.785 106.859 344.99 107.729 345.4 108.236C345.817 108.744 346.374 108.998 347.07 108.998C347.591 108.998 348.018 108.852 348.35 108.559C348.682 108.259 348.916 107.748 349.053 107.025L351.748 107.484C351.468 108.721 350.931 109.656 350.137 110.287C349.342 110.919 348.278 111.234 346.943 111.234C345.426 111.234 344.215 110.756 343.311 109.799C342.412 108.842 341.963 107.517 341.963 105.824C341.963 104.112 342.415 102.781 343.32 101.83C344.225 100.873 345.449 100.395 346.992 100.395C348.255 100.395 349.258 100.668 350 101.215C350.749 101.755 351.286 102.582 351.611 103.695ZM359.707 107.699L362.441 108.158C362.09 109.161 361.533 109.926 360.771 110.453C360.016 110.974 359.069 111.234 357.93 111.234C356.126 111.234 354.792 110.645 353.926 109.467C353.242 108.523 352.9 107.331 352.9 105.893C352.9 104.174 353.35 102.829 354.248 101.859C355.146 100.883 356.283 100.395 357.656 100.395C359.199 100.395 360.417 100.906 361.309 101.928C362.201 102.943 362.627 104.503 362.588 106.605H355.713C355.732 107.419 355.954 108.054 356.377 108.51C356.8 108.959 357.327 109.184 357.959 109.184C358.389 109.184 358.75 109.066 359.043 108.832C359.336 108.598 359.557 108.22 359.707 107.699ZM359.863 104.926C359.844 104.132 359.639 103.529 359.248 103.119C358.857 102.702 358.382 102.494 357.822 102.494C357.223 102.494 356.729 102.712 356.338 103.148C355.947 103.585 355.755 104.177 355.762 104.926H359.863Z" fill="white"/>
<rect width="93.5" height="83.5" transform="translate(2)" fill="#A0322B"/>
<path d="M68.1176 42.759L94 0V33.8313L68.1176 78H47.8824L58.2353 59.2048H46L55.4118 42.759H68.1176Z" fill="#FEFEFC"/>
<path d="M26.9793 43.3263L51.8345 1H72L26.9793 78H6.81379L17.131 59.0958H4V43.3263H26.9793Z" fill="#FEFEFC"/>
<rect width="258" height="84" transform="translate(101)" fill="#1C1B17"/>
<path d="M114.203 11.2812H178.75V28.25H157.094V80H135.859V28.25H114.203V11.2812ZM198.919 11.2812H255.826V25.9531H220.201V36.875H253.247V50.8906H220.201V64.4375H256.857V80H198.919V11.2812ZM324.651 51.9219L343.261 57.5469C342.011 62.7656 340.042 67.125 337.354 70.625C334.667 74.125 331.323 76.7656 327.323 78.5469C323.354 80.3281 318.292 81.2188 312.136 81.2188C304.667 81.2188 298.557 80.1406 293.807 77.9844C289.089 75.7969 285.011 71.9688 281.573 66.5C278.136 61.0312 276.417 54.0312 276.417 45.5C276.417 34.125 279.432 25.3906 285.464 19.2969C291.526 13.1719 300.089 10.1094 311.151 10.1094C319.807 10.1094 326.604 11.8594 331.542 15.3594C336.511 18.8594 340.198 24.2344 342.604 31.4844L323.854 35.6562C323.198 33.5625 322.511 32.0312 321.792 31.0625C320.604 29.4375 319.151 28.1875 317.432 27.3125C315.714 26.4375 313.792 26 311.667 26C306.854 26 303.167 27.9375 300.604 31.8125C298.667 34.6875 297.698 39.2031 297.698 45.3594C297.698 52.9844 298.854 58.2188 301.167 61.0625C303.479 63.875 306.729 65.2812 310.917 65.2812C314.979 65.2812 318.042 64.1406 320.104 61.8594C322.198 59.5781 323.714 56.2656 324.651 51.9219Z" fill="white"/>
</svg>
